<svg width="500" height="500" viewBox="0 0 500 500" fill="none" xmlns="http://www.w3.org/2000/svg">
<rect width="500" height="500" rx="50" fill="#021434"/>
<path d="M205.5 288C192.536 288 182 277.15 182 263.8V191.2C182 177.85 192.536 167 205.5 167C218.464 167 229 177.85 229 191.2V263.8C229 277.15 218.464 288 205.5 288Z" stroke="#00B53F" stroke-width="19" stroke-miterlimit="10"/>
<path d="M253 294C239.76 294 229 283.157 229 269.815V187.185C229 173.843 239.76 163 253 163C266.24 163 277 173.843 277 187.185V269.815C277 283.157 266.24 294 253 294Z" stroke="#00B53F" stroke-width="19" stroke-miterlimit="10"/>
<path d="M301 284C287.76 284 277 273.15 277 259.8V187.2C277 173.85 287.76 163 301 163C314.24 163 325 173.85 325 187.2V259.8C325 273.15 314.24 284 301 284Z" stroke="#00B53F" stroke-width="19" stroke-miterlimit="10"/>
<path d="M181.65 195.09L141.841 119.813C133.004 104.193 126.276 96.1201 113.1 96.1201C99.9233 96.1201 93.1957 108.229 97.1765 128.411C97.1765 128.411 129.023 265.645 133.004 289.863C143.155 351.538 181.331 402.879 242.994 402.879C290.087 402.879 324.084 370.589 347.968 330.226L400.794 236.705C407.402 225.12 403.461 210.307 392.036 203.607C380.611 196.907 371.853 201.024 359.393 212.487L324.084 241.427" stroke="#00B53F" stroke-width="19" stroke-miterlimit="10"/>
</svg>
