<?xml version="1.0" encoding="UTF-8"?> <svg xmlns="http://www.w3.org/2000/svg" id="Layer_1" data-name="Layer 1" viewBox="0 0 211 43.5"><defs><style>.cls-1{fill:#32476b;}.cls-2{fill:#f9c149;}.cls-3{fill:#f7a559;}.cls-4{fill:#f48b6b;}.cls-5{fill:#fcdf51;}.cls-6{fill:#faca43;}</style></defs><path id="fullLogo" class="cls-1" d="M64.47,19.91Q58,19.06,58,15a3.85,3.85,0,0,1,1.61-3.32A7.35,7.35,0,0,1,64,10.55a6.49,6.49,0,0,1,5.8,3,1.43,1.43,0,0,0,1.23.72,1.38,1.38,0,0,0,.62-.13,1.18,1.18,0,0,0,.62-1,1.54,1.54,0,0,0-.24-.83,9,9,0,0,0-3.23-3.12A9.27,9.27,0,0,0,64,8a11.33,11.33,0,0,0-4.48.84,7.13,7.13,0,0,0-3.09,2.4,6.09,6.09,0,0,0-1.11,3.62,6.3,6.3,0,0,0,2.28,4.92,11.28,11.28,0,0,0,6.26,2.49,8.42,8.42,0,0,1,4.78,1.89,4.72,4.72,0,0,1,1.6,3.63,4.54,4.54,0,0,1-1.72,3.79A7.1,7.1,0,0,1,64,33a9.17,9.17,0,0,1-4.27-1,5.83,5.83,0,0,1-2.63-2.48,1.29,1.29,0,0,0-.53-.64,1.57,1.57,0,0,0-1.75.1,1.06,1.06,0,0,0-.36.81,1.1,1.1,0,0,0,.14.55,8.14,8.14,0,0,0,3.62,3.75A11.72,11.72,0,0,0,64,35.48a10.86,10.86,0,0,0,4.52-.91,7.12,7.12,0,0,0,4.36-6.8,6.92,6.92,0,0,0-2.09-5.25A11.37,11.37,0,0,0,64.47,19.91Z"></path><path id="fullLogo-2" data-name="fullLogo" class="cls-1" d="M90.69,17.44a10.28,10.28,0,0,0-9.75,0,9,9,0,0,0-3.42,3.43,9.89,9.89,0,0,0-1.23,4.91,9.75,9.75,0,0,0,1.23,4.88,9,9,0,0,0,3.42,3.42,10.32,10.32,0,0,0,9.77,0,8.89,8.89,0,0,0,3.41-3.42,9.65,9.65,0,0,0,1.24-4.88,9.8,9.8,0,0,0-1.25-4.91A9.15,9.15,0,0,0,90.69,17.44Zm1.17,12A6.54,6.54,0,0,1,89.39,32a7.35,7.35,0,0,1-7.12,0,6.68,6.68,0,0,1-2.5-2.56,7.43,7.43,0,0,1-.91-3.65,7.53,7.53,0,0,1,.91-3.69,6.66,6.66,0,0,1,2.5-2.55,7.28,7.28,0,0,1,7.12,0,6.51,6.51,0,0,1,2.47,2.55,7.63,7.63,0,0,1,.89,3.69A7.53,7.53,0,0,1,91.86,29.43Z"></path><path id="fullLogo-3" data-name="fullLogo" class="cls-1" d="M105,32.53h-.86a1.76,1.76,0,0,1-1.52-.92,4.36,4.36,0,0,1-.6-2.4V9.66a1.27,1.27,0,0,0-.36-.94,1.39,1.39,0,0,0-1.87,0,1.24,1.24,0,0,0-.38.94V29.21a6.68,6.68,0,0,0,1.32,4.27,4.15,4.15,0,0,0,3.41,1.66h.45a1.65,1.65,0,0,0,1.11-.36,1.15,1.15,0,0,0,.43-.94,1.39,1.39,0,0,0-.31-1A1,1,0,0,0,105,32.53Z"></path><path id="fullLogo-4" data-name="fullLogo" class="cls-1" d="M116.33,12.08a10,10,0,0,1,5.35-1.53,11,11,0,0,1,3.67.55,8.55,8.55,0,0,1,2.92,1.75,1.26,1.26,0,0,0,.86.31,1,1,0,0,0,.51-.14.64.64,0,0,0,.31-.38.79.79,0,0,0,.38-.32,1,1,0,0,0,.13-.5.92.92,0,0,0-.37-.79,12.86,12.86,0,0,0-3.91-2.3,13.36,13.36,0,0,0-4.5-.72A12.78,12.78,0,0,0,115,9.86a13.87,13.87,0,0,0-6.62,11.87A13.85,13.85,0,0,0,115,33.63a12.57,12.57,0,0,0,6.68,1.85,12,12,0,0,0,8.41-2.95,1.36,1.36,0,0,0,.37-1,1.25,1.25,0,0,0-1.26-1.3,1.28,1.28,0,0,0-.76.27A10.53,10.53,0,0,1,121.68,33a10.19,10.19,0,0,1-5.38-1.51,11,11,0,0,1-3.91-4.09A11.28,11.28,0,0,1,111,21.73a11.37,11.37,0,0,1,5.38-9.65Z"></path><path id="fullLogo-5" data-name="fullLogo" class="cls-1" d="M169.5,17.46a9.13,9.13,0,0,0-4.72-1.25,8.87,8.87,0,0,0-4.08.94,8.5,8.5,0,0,0-3,2.59v-10a1.28,1.28,0,0,0-1.34-1.33,1.24,1.24,0,0,0-.94.37,1.33,1.33,0,0,0-.36,1v7.69a1,1,0,0,0,0,.3v8.06a9.58,9.58,0,0,0,1.26,4.87,9,9,0,0,0,3.43,3.45,10,10,0,0,0,9.7,0,9,9,0,0,0,3.43-3.45A9.57,9.57,0,0,0,174,25.74a9.78,9.78,0,0,0-1.21-4.85A9.22,9.22,0,0,0,169.5,17.46Zm1.06,11.94a6.91,6.91,0,0,1-12.07,0,7.36,7.36,0,0,1-.91-3.66,5.86,5.86,0,0,1,0-.85.48.48,0,0,0,0-.18,6.91,6.91,0,0,1,2.25-4.39,6.63,6.63,0,0,1,4.61-1.71,6.92,6.92,0,0,1,3.55.93,6.59,6.59,0,0,1,2.5,2.55,7.8,7.8,0,0,1,0,7.31Z"></path><path id="fullLogo-6" data-name="fullLogo" class="cls-1" d="M191.27,17.39a8.48,8.48,0,0,0-4.49-1.18,8.91,8.91,0,0,0-4.65,1.22,8.48,8.48,0,0,0-3.19,3.39,10.43,10.43,0,0,0-1.15,5A9.92,9.92,0,0,0,179,30.7a8.67,8.67,0,0,0,3.38,3.39,9.71,9.71,0,0,0,4.9,1.22,9.85,9.85,0,0,0,3.36-.63,9.38,9.38,0,0,0,2.88-1.6,1,1,0,0,0,.38-.79,1.23,1.23,0,0,0-1.2-1.2,1.52,1.52,0,0,0-.93.35,6.17,6.17,0,0,1-2,1.08,7.86,7.86,0,0,1-2.49.43,6.76,6.76,0,0,1-7-6.32h13.86a1.22,1.22,0,0,0,.89-.32,1.16,1.16,0,0,0,.35-.88,10.21,10.21,0,0,0-1.09-4.76A8.07,8.07,0,0,0,191.27,17.39Zm-10.91,7.05a6.93,6.93,0,0,1,2.1-4.25,6,6,0,0,1,4.32-1.61A5.77,5.77,0,0,1,191,20.19a6.76,6.76,0,0,1,1.92,4.25Z"></path><path id="fullLogo-7" data-name="fullLogo" class="cls-1" d="M210.16,16.55a5.69,5.69,0,0,0-2.28-.38,7.29,7.29,0,0,0-3.33.79A6.9,6.9,0,0,0,202,19.19V17.68a1.3,1.3,0,0,0-.34-1,1.53,1.53,0,0,0-1.92,0,1.3,1.3,0,0,0-.34,1V33.84a1.3,1.3,0,1,0,2.6,0V23.58A4.45,4.45,0,0,1,203.64,20a6.29,6.29,0,0,1,4.2-1.38,7.68,7.68,0,0,1,.83,0c.5,0,.86.07,1.06.07a1.68,1.68,0,0,0,.81-.17,1.14,1.14,0,0,0,.43-.66,1.1,1.1,0,0,0,0-.3A1.18,1.18,0,0,0,210.16,16.55Z"></path><path id="fullLogo-8" data-name="fullLogo" class="cls-1" d="M150.42,16.48a1.49,1.49,0,0,0-.61-.13,1.1,1.1,0,0,0-1,.75L142.4,31.16l-.53,1.15-7.36-15.24a1.05,1.05,0,0,0-1-.72,1.41,1.41,0,0,0-.62.13,1.06,1.06,0,0,0-.75,1,1.38,1.38,0,0,0,.14.62l8.33,17-2.88,6.37a1.55,1.55,0,0,0-.14.62,1.08,1.08,0,0,0,.79,1,1.38,1.38,0,0,0,.62.13,1,1,0,0,0,1-.79L151.08,18.1a1.57,1.57,0,0,0,.13-.62A1.05,1.05,0,0,0,150.42,16.48Z"></path><g id="logoMark"><circle id="logoMark_PathItem_" data-name="logoMark &lt;PathItem&gt;" class="cls-2" cx="31.54" cy="4.78" r="2.16"></circle><circle id="logoMark_PathItem_2" data-name="logoMark &lt;PathItem&gt;" class="cls-2" cx="21.75" cy="2.16" r="2.16"></circle><circle id="logoMark_PathItem_3" data-name="logoMark &lt;PathItem&gt;" class="cls-2" cx="11.95" cy="4.78" r="2.16"></circle><circle id="logoMark_PathItem_4" data-name="logoMark &lt;PathItem&gt;" class="cls-3" cx="38.71" cy="31.54" r="2.16"></circle><circle id="logoMark_PathItem_5" data-name="logoMark &lt;PathItem&gt;" class="cls-3" cx="41.34" cy="21.75" r="2.16"></circle><circle id="logoMark_PathItem_6" data-name="logoMark &lt;PathItem&gt;" class="cls-3" cx="38.71" cy="11.95" r="2.16"></circle><circle id="logoMark_PathItem_7" data-name="logoMark &lt;PathItem&gt;" class="cls-3" cx="4.78" cy="11.95" r="2.16"></circle><circle id="logoMark_PathItem_8" data-name="logoMark &lt;PathItem&gt;" class="cls-3" cx="2.16" cy="21.75" r="2.16"></circle><circle id="logoMark_PathItem_9" data-name="logoMark &lt;PathItem&gt;" class="cls-3" cx="4.78" cy="31.54" r="2.16"></circle><circle id="logoMark_PathItem_10" data-name="logoMark &lt;PathItem&gt;" class="cls-4" cx="21.75" cy="41.34" r="2.16"></circle><circle id="logoMark_PathItem_11" data-name="logoMark &lt;PathItem&gt;" class="cls-4" cx="31.54" cy="38.71" r="2.16"></circle><circle id="logoMark_PathItem_12" data-name="logoMark &lt;PathItem&gt;" class="cls-4" cx="11.95" cy="38.71" r="2.16"></circle><circle id="logoMark_PathItem_13" data-name="logoMark &lt;PathItem&gt;" class="cls-5" cx="30.45" cy="16.71" r="2.16"></circle><circle id="logoMark_PathItem_14" data-name="logoMark &lt;PathItem&gt;" class="cls-5" cx="21.74" cy="11.7" r="2.16"></circle><circle id="logoMark_PathItem_15" data-name="logoMark &lt;PathItem&gt;" class="cls-5" cx="13.04" cy="16.73" r="2.16"></circle><circle id="logoMark_PathItem_16" data-name="logoMark &lt;PathItem&gt;" class="cls-6" cx="21.76" cy="31.8" r="2.16"></circle><circle id="logoMark_PathItem_17" data-name="logoMark &lt;PathItem&gt;" class="cls-6" cx="30.46" cy="26.76" r="2.16"></circle><circle id="logoMark_PathItem_18" data-name="logoMark &lt;PathItem&gt;" class="cls-6" cx="13.05" cy="26.78" r="2.16"></circle></g></svg> 