<svg width="36" height="36" viewBox="0 0 36 36" fill="none" xmlns="http://www.w3.org/2000/svg">
<path fill-rule="evenodd" clip-rule="evenodd" d="M7.5 3.375C5.22118 3.375 3.375 5.22118 3.375 7.5V9C3.375 9.62132 3.87868 10.125 4.5 10.125C5.12132 10.125 5.625 9.62132 5.625 9V7.5C5.625 6.46382 6.46382 5.625 7.5 5.625H9C9.62132 5.625 10.125 5.12132 10.125 4.5C10.125 3.87868 9.62132 3.375 9 3.375H7.5ZM28.0061 11.0029C28.284 10.4472 28.0587 9.77146 27.503 9.4936C26.9473 9.21573 26.2715 9.44099 25.9937 9.99671L24.6234 12.7373L23.2066 13.7119C22.8968 13.3742 22.5314 13.0882 22.1248 12.8686V10.5C22.1248 9.05068 20.9491 7.875 19.4998 7.875H16.4998C15.0505 7.875 13.8748 9.05068 13.8748 10.5V12.868C13.4681 13.0876 13.1025 13.3736 12.7925 13.7114L11.3765 12.7373L10.0062 9.99671C9.72837 9.44099 9.05261 9.21573 8.49688 9.4936C7.94116 9.77146 7.71591 10.4472 7.99377 11.0029L9.49377 14.0029C9.57884 14.1731 9.70567 14.3189 9.86239 14.4267L11.7767 15.7436C11.7313 15.9888 11.7075 16.2416 11.7075 16.5V16.875H7.50017C6.87885 16.875 6.37517 17.3787 6.37517 18C6.37517 18.6213 6.87885 19.125 7.50017 19.125H11.7075V20.3041L9.86239 21.5734C9.70567 21.6812 9.57884 21.827 9.49377 21.9972L7.99377 24.9972C7.71591 25.5529 7.94116 26.2286 8.49688 26.5065C9.05261 26.7844 9.72837 26.5591 10.0062 26.0034L11.3765 23.2628L12.0107 22.8265C12.769 25.0366 14.8651 26.625 17.3325 26.625H18.666C21.1338 26.625 23.2301 25.0363 23.9882 22.8258L24.6234 23.2628L25.9937 26.0034C26.2715 26.5591 26.9473 26.7844 27.503 26.5065C28.0587 26.2286 28.284 25.5529 28.0061 24.9972L26.5061 21.9972C26.4211 21.827 26.2942 21.6812 26.1375 21.5734L24.291 20.3032V19.125H28.5004C29.1217 19.125 29.6254 18.6213 29.6254 18C29.6254 17.3787 29.1217 16.875 28.5004 16.875H24.291V16.5C24.291 16.2419 24.2674 15.9893 24.222 15.7444L26.1375 14.4267C26.2942 14.3189 26.4211 14.1731 26.5061 14.0029L28.0061 11.0029ZM16.1248 12.375V10.5C16.1248 10.2933 16.2931 10.125 16.4998 10.125H19.4998C19.7065 10.125 19.8748 10.2933 19.8748 10.5V12.375H16.1248ZM15.8325 14.625C14.7964 14.625 13.9575 15.4638 13.9575 16.5V21C13.9575 22.8642 15.4684 24.375 17.3325 24.375H18.666C20.5302 24.375 22.041 22.8642 22.041 21V16.5C22.041 15.4638 21.2022 14.625 20.166 14.625H15.8325ZM31.5 25.875C32.1213 25.875 32.625 26.3787 32.625 27V28.5C32.625 30.7788 30.7788 32.625 28.5 32.625H27C26.3787 32.625 25.875 32.1213 25.875 31.5C25.875 30.8787 26.3787 30.375 27 30.375H28.5C29.5362 30.375 30.375 29.5362 30.375 28.5V27C30.375 26.3787 30.8787 25.875 31.5 25.875ZM5.625 27C5.625 26.3787 5.12132 25.875 4.5 25.875C3.87868 25.875 3.375 26.3787 3.375 27V28.5C3.375 30.7788 5.22118 32.625 7.5 32.625H9C9.62132 32.625 10.125 32.1213 10.125 31.5C10.125 30.8787 9.62132 30.375 9 30.375H7.5C6.46382 30.375 5.625 29.5362 5.625 28.5V27ZM25.875 4.5C25.875 3.87868 26.3787 3.375 27 3.375H28.5C30.7788 3.375 32.625 5.22118 32.625 7.5V9C32.625 9.62132 32.1213 10.125 31.5 10.125C30.8787 10.125 30.375 9.62132 30.375 9V7.5C30.375 6.46382 29.5362 5.625 28.5 5.625H27C26.3787 5.625 25.875 5.12132 25.875 4.5Z" fill="url(#paint0_linear_859_22899)"/>
<defs>
<linearGradient id="paint0_linear_859_22899" x1="3.375" y1="32.625" x2="34.0801" y2="31.4602" gradientUnits="userSpaceOnUse">
<stop stop-color="#4062F7"/>
<stop offset="1" stop-color="#E980E4"/>
</linearGradient>
</defs>
</svg>
