<svg width="42" height="42" viewBox="0 0 42 42" fill="none" xmlns="http://www.w3.org/2000/svg">
<path fill-rule="evenodd" clip-rule="evenodd" d="M29.6949 5.86574C29.716 5.86459 29.7372 5.86401 29.7583 5.86401C31.4574 5.86401 33.0869 6.53899 34.2884 7.74044C35.4899 8.9419 36.1648 10.5714 36.1648 12.2705C36.1648 12.2917 36.1643 12.3128 36.1631 12.334C35.9812 15.6694 34.8144 18.8761 32.8102 21.5484C30.9612 24.0137 28.4761 25.9222 25.6281 27.0734C25.4561 28.7757 24.9108 30.4227 24.0272 31.8954C23.0081 33.5939 21.5727 35.0045 19.8567 35.9938C19.5175 36.1893 19.1028 36.2014 18.7528 36.0259C18.4028 35.8504 18.1644 35.5109 18.1182 35.1221C17.9918 34.059 17.7337 33.0232 17.3546 32.0368C16.3293 33.2697 15.0554 34.2836 13.6078 35.0074C11.5325 36.045 9.19454 36.4393 6.89371 36.1395C6.36976 36.0712 5.95739 35.6589 5.88913 35.1349C5.58937 32.8341 5.98359 30.4961 7.02125 28.4208C7.74504 26.9732 8.75889 25.6994 9.99171 24.6742C9.013 24.298 7.98566 24.041 6.93125 23.9136C6.84588 23.9053 6.7607 23.8875 6.67728 23.8597C6.37911 23.7611 6.13908 23.5473 6.0028 23.2761C5.86708 23.0047 5.8393 22.6845 5.93856 22.3867C5.96647 22.3024 6.0036 22.2227 6.04865 22.1487C7.03726 20.4431 8.4427 19.0161 10.1335 18.0017C11.6062 17.1181 13.2531 16.5727 14.9555 16.4007C16.1067 13.5527 18.0151 11.0677 20.4805 9.21868C23.1528 7.21443 26.3594 6.0476 29.6949 5.86574ZM14.4549 27.574C15.109 28.2281 15.6863 28.947 16.1797 29.7162C15.2802 31.0814 14.0349 32.1892 12.566 32.9237C11.185 33.6141 9.65879 33.9485 8.12517 33.9035C8.08015 32.3698 8.4145 30.8436 9.10495 29.4627C9.83942 27.9937 10.9472 26.7485 12.3123 25.849C13.0817 26.3424 13.8006 26.9197 14.4549 27.574ZM9.0413 21.9371C11.7024 22.5973 14.1468 23.9713 16.1022 25.9267C18.0576 27.8821 19.4315 30.3265 20.0918 32.9875C20.8543 32.3361 21.5096 31.5633 22.0295 30.6968C22.8448 29.338 23.3001 27.7938 23.3524 26.21C23.3682 25.73 23.677 25.309 24.13 25.1496C26.8465 24.194 29.2186 22.4543 30.9464 20.1506C32.6676 17.8557 33.6724 15.1037 33.8351 12.2402C33.8271 11.1699 33.3985 10.1452 32.6411 9.38776C31.8837 8.63035 30.8589 8.20174 29.7887 8.19378C26.9251 8.35644 24.1731 9.36122 21.8782 11.0824C19.5745 12.8102 17.8348 15.1823 16.8792 17.8988C16.7199 18.3518 16.2988 18.6606 15.8189 18.6765C14.2351 18.7288 12.6908 19.1841 11.332 19.9993C10.4656 20.5192 9.69278 21.1745 9.0413 21.9371ZM25.6812 15.7648C25.6812 15.4432 25.942 15.1824 26.2636 15.1824C26.5853 15.1824 26.846 15.4432 26.846 15.7648C26.846 16.0865 26.5853 16.3473 26.2636 16.3473C25.942 16.3473 25.6812 16.0865 25.6812 15.7648ZM26.2636 12.8528C24.6553 12.8528 23.3516 14.1566 23.3516 15.7648C23.3516 17.3731 24.6553 18.6769 26.2636 18.6769C27.8719 18.6769 29.1757 17.3731 29.1757 15.7648C29.1757 14.1566 27.8719 12.8528 26.2636 12.8528Z" fill="url(#paint0_linear_825_12514)"/>
<defs>
<linearGradient id="paint0_linear_825_12514" x1="5.7915" y1="36.2371" x2="37.6758" y2="35.0276" gradientUnits="userSpaceOnUse">
<stop stop-color="#4062F7"/>
<stop offset="1" stop-color="#E980E4"/>
</linearGradient>
</defs>
</svg>
