<svg width="42" height="10" viewBox="0 0 42 10" fill="none" xmlns="http://www.w3.org/2000/svg">
<path d="M0 5C0 2.23858 2.23858 0 5 0C7.76142 0 10 2.23858 10 5C10 7.76142 7.76142 10 5 10C2.23858 10 0 7.76142 0 5Z" fill="#475569"/>
<path d="M16 5C16 2.23858 18.2386 0 21 0C23.7614 0 26 2.23858 26 5C26 7.76142 23.7614 10 21 10C18.2386 10 16 7.76142 16 5Z" fill="#475569"/>
<path d="M32 5C32 2.23858 34.2386 0 37 0C39.7614 0 42 2.23858 42 5C42 7.76142 39.7614 10 37 10C34.2386 10 32 7.76142 32 5Z" fill="#475569"/>
</svg>
