<svg width="16" height="14" viewBox="0 0 16 14" fill="none" xmlns="http://www.w3.org/2000/svg">
<path fill-rule="evenodd" clip-rule="evenodd" d="M9.66942 0.23964C9.3499 -0.07988 8.83185 -0.07988 8.51233 0.23964C8.19281 0.55916 8.19281 1.0772 8.51233 1.39672L12.8429 5.72727H1.72724C1.27537 5.72727 0.909058 6.09359 0.909058 6.54545C0.909058 6.99732 1.27537 7.36364 1.72724 7.36364H12.8429L8.51233 11.6942C8.19281 12.0137 8.19281 12.5317 8.51233 12.8513C8.83185 13.1708 9.3499 13.1708 9.66942 12.8513L15.3962 7.12448L15.3967 7.124M9.66942 0.23964L15.3962 5.96642L9.66942 0.23964ZM15.3967 5.96691C15.3985 5.9687 15.4002 5.97048 15.402 5.97228L15.3967 5.96691ZM15.402 5.97228C15.4743 6.04595 15.5328 6.13324 15.5733 6.22997C15.5343 6.13652 15.4772 6.04884 15.402 5.97228ZM15.5733 6.86094C15.5328 6.95766 15.4743 7.04496 15.402 7.11863C15.4772 7.04207 15.5343 6.95439 15.5733 6.86094Z" fill="white"/>
</svg>
