<svg width="1440" height="2438" viewBox="0 0 1440 2438" fill="none" xmlns="http://www.w3.org/2000/svg">
<g clip-path="url(#clip0_682_12341)">
<circle cx="784.5" cy="786.5" r="1235.5" stroke="#ECF4F4" stroke-width="2"/>
<path d="M1882 861.5C1882 1543.85 1329.07 2097 647 2097C-35.0713 2097 -588 1543.85 -588 861.5C-588 179.152 -35.0713 -374 647 -374C1329.07 -374 1882 179.152 1882 861.5Z" stroke="#ECF4F4" stroke-width="2"/>
<circle cx="509.5" cy="937.5" r="1235.5" stroke="#ECF4F4" stroke-width="2"/>
<circle cx="372.5" cy="1012.5" r="1235.5" stroke="#ECF4F4" stroke-width="2"/>
<circle cx="235" cy="1088" r="1235" stroke="#ECF4F4" stroke-width="2"/>
<path d="M1334 1164C1334 1846.62 780.848 2400 98.5 2400C-583.847 2400 -1137 1846.62 -1137 1164C-1137 481.376 -583.847 -72 98.5 -72C780.848 -72 1334 481.376 1334 1164Z" stroke="#ECF4F4" stroke-width="2"/>
</g>
<defs>
<clipPath id="clip0_682_12341">
<rect width="1440" height="2438" fill="white"/>
</clipPath>
</defs>
</svg>
