<svg width="24" height="24" viewBox="0 0 24 24" fill="none" xmlns="http://www.w3.org/2000/svg">
<path d="M6 15C6 15.5304 5.78929 16.0391 5.41421 16.4142C5.03914 16.7893 4.53043 17 4 17C3.46957 17 2.96086 16.7893 2.58579 16.4142C2.21071 16.0391 2 15.5304 2 15C2 14.4696 2.21071 13.9609 2.58579 13.5858C2.96086 13.2107 3.46957 13 4 13H6V15ZM7 15C7 14.4696 7.21071 13.9609 7.58579 13.5858C7.96086 13.2107 8.46957 13 9 13C9.53043 13 10.0391 13.2107 10.4142 13.5858C10.7893 13.9609 11 14.4696 11 15V20C11 20.5304 10.7893 21.0391 10.4142 21.4142C10.0391 21.7893 9.53043 22 9 22C8.46957 22 7.96086 21.7893 7.58579 21.4142C7.21071 21.0391 7 20.5304 7 20V15ZM9 7C8.46957 7 7.96086 6.78929 7.58579 6.41421C7.21071 6.03914 7 5.53043 7 5C7 4.46957 7.21071 3.96086 7.58579 3.58579C7.96086 3.21071 8.46957 3 9 3C9.53043 3 10.0391 3.21071 10.4142 3.58579C10.7893 3.96086 11 4.46957 11 5V7H9ZM9 8C9.53043 8 10.0391 8.21071 10.4142 8.58579C10.7893 8.96086 11 9.46957 11 10C11 10.5304 10.7893 11.0391 10.4142 11.4142C10.0391 11.7893 9.53043 12 9 12H4C3.46957 12 2.96086 11.7893 2.58579 11.4142C2.21071 11.0391 2 10.5304 2 10C2 9.46957 2.21071 8.96086 2.58579 8.58579C2.96086 8.21071 3.46957 8 4 8H9ZM17 10C17 9.46957 17.2107 8.96086 17.5858 8.58579C17.9609 8.21071 18.4696 8 19 8C19.5304 8 20.0391 8.21071 20.4142 8.58579C20.7893 8.96086 21 9.46957 21 10C21 10.5304 20.7893 11.0391 20.4142 11.4142C20.0391 11.7893 19.5304 12 19 12H17V10ZM16 10C16 10.5304 15.7893 11.0391 15.4142 11.4142C15.0391 11.7893 14.5304 12 14 12C13.4696 12 12.9609 11.7893 12.5858 11.4142C12.2107 11.0391 12 10.5304 12 10V5C12 4.46957 12.2107 3.96086 12.5858 3.58579C12.9609 3.21071 13.4696 3 14 3C14.5304 3 15.0391 3.21071 15.4142 3.58579C15.7893 3.96086 16 4.46957 16 5V10ZM14 18C14.5304 18 15.0391 18.2107 15.4142 18.5858C15.7893 18.9609 16 19.4696 16 20C16 20.5304 15.7893 21.0391 15.4142 21.4142C15.0391 21.7893 14.5304 22 14 22C13.4696 22 12.9609 21.7893 12.5858 21.4142C12.2107 21.0391 12 20.5304 12 20V18H14ZM14 17C13.4696 17 12.9609 16.7893 12.5858 16.4142C12.2107 16.0391 12 15.5304 12 15C12 14.4696 12.2107 13.9609 12.5858 13.5858C12.9609 13.2107 13.4696 13 14 13H19C19.5304 13 20.0391 13.2107 20.4142 13.5858C20.7893 13.9609 21 14.4696 21 15C21 15.5304 20.7893 16.0391 20.4142 16.4142C20.0391 16.7893 19.5304 17 19 17H14Z" fill="#364B65"/>
</svg>
