<svg width="14" height="14" viewBox="0 0 14 14" fill="none" xmlns="http://www.w3.org/2000/svg">
<path d="M13 6.25C12.8011 6.25 12.6103 6.32902 12.4697 6.46967C12.329 6.61032 12.25 6.80109 12.25 7V11.5C12.25 11.6989 12.171 11.8897 12.0303 12.0303C11.8897 12.171 11.6989 12.25 11.5 12.25H2.5C2.30109 12.25 2.11032 12.171 1.96967 12.0303C1.82902 11.8897 1.75 11.6989 1.75 11.5V2.5C1.75 2.30109 1.82902 2.11032 1.96967 1.96967C2.11032 1.82902 2.30109 1.75 2.5 1.75H7C7.19891 1.75 7.38968 1.67098 7.53033 1.53033C7.67098 1.38968 7.75 1.19891 7.75 1C7.75 0.801088 7.67098 0.610322 7.53033 0.46967C7.38968 0.329018 7.19891 0.25 7 0.25H2.5C1.90326 0.25 1.33097 0.487053 0.90901 0.90901C0.487053 1.33097 0.25 1.90326 0.25 2.5V11.5C0.25 12.0967 0.487053 12.669 0.90901 13.091C1.33097 13.5129 1.90326 13.75 2.5 13.75H11.5C12.0967 13.75 12.669 13.5129 13.091 13.091C13.5129 12.669 13.75 12.0967 13.75 11.5V7C13.75 6.80109 13.671 6.61032 13.5303 6.46967C13.3897 6.32902 13.1989 6.25 13 6.25Z" fill="#0D3FF0"/>
<path d="M9.99995 1.75H11.185L6.46745 6.46C6.39716 6.52972 6.34136 6.61267 6.30329 6.70407C6.26521 6.79546 6.24561 6.89349 6.24561 6.9925C6.24561 7.09151 6.26521 7.18954 6.30329 7.28093C6.34136 7.37233 6.39716 7.45528 6.46745 7.525C6.53718 7.5953 6.62013 7.65109 6.71152 7.68917C6.80292 7.72724 6.90095 7.74685 6.99995 7.74685C7.09896 7.74685 7.19699 7.72724 7.28839 7.68917C7.37978 7.65109 7.46273 7.5953 7.53245 7.525L12.25 2.815V4C12.25 4.19891 12.329 4.38968 12.4696 4.53033C12.6103 4.67098 12.801 4.75 13 4.75C13.1989 4.75 13.3896 4.67098 13.5303 4.53033C13.6709 4.38968 13.75 4.19891 13.75 4V1C13.75 0.801088 13.6709 0.610322 13.5303 0.46967C13.3896 0.329018 13.1989 0.25 13 0.25H9.99995C9.80104 0.25 9.61028 0.329018 9.46962 0.46967C9.32897 0.610322 9.24995 0.801088 9.24995 1C9.24995 1.19891 9.32897 1.38968 9.46962 1.53033C9.61028 1.67098 9.80104 1.75 9.99995 1.75Z" fill="#0D3FF0"/>
</svg>
