<svg width="1250" height="468" viewBox="0 0 1250 468" fill="none" xmlns="http://www.w3.org/2000/svg">
<g opacity="0.3" clip-path="url(#clip0_1186_2783)">
<path d="M1206.4 -9.59834L1249.78 15.6012V66.0002L1293.16 40.8007V-9.59834L1249.78 -34.7979L1206.4 -9.59834Z" stroke="white" stroke-opacity="0.3" stroke-width="0.786401" style="mix-blend-mode:overlay"/>
<path d="M1163.02 15.5999L1206.4 40.7994V-9.59961L1163.02 15.5999Z" stroke="white" stroke-opacity="0.3" stroke-width="0.786401" style="mix-blend-mode:overlay"/>
<path d="M1119.64 -9.59834L1163.02 15.6012L1206.4 -9.59834L1163.02 -34.7979L1119.64 -9.59834Z" stroke="white" stroke-opacity="0.3" stroke-width="0.786401" style="mix-blend-mode:overlay"/>
<path d="M1119.64 -9.59961V40.7994L1163.02 65.9989V15.5999L1119.64 -9.59961Z" stroke="white" stroke-opacity="0.3" stroke-width="0.786401" style="mix-blend-mode:overlay"/>
<path d="M1206.4 -9.59961V40.7994L1249.78 65.9989V15.5999L1206.4 -9.59961Z" stroke="white" stroke-opacity="0.3" stroke-width="0.786401" style="mix-blend-mode:overlay"/>
<path d="M1163.02 15.6006V65.9996L1206.4 40.8001L1163.02 15.6006Z" stroke="white" stroke-opacity="0.3" stroke-width="0.786401" style="mix-blend-mode:overlay"/>
<path d="M1163.02 66.0003L1206.4 91.2095L1249.78 66.0003L1206.4 40.8008L1163.02 66.0003Z" stroke="white" stroke-opacity="0.3" stroke-width="0.786401" style="mix-blend-mode:overlay"/>
<path d="M1032.88 -9.59834L1076.26 15.6012V66.0002L1119.64 40.8007V-9.59834L1076.26 -34.7979L1032.88 -9.59834Z" stroke="white" stroke-opacity="0.3" stroke-width="0.786401" style="mix-blend-mode:overlay"/>
<path d="M989.501 15.5999L1032.88 40.7994V-9.59961L989.501 15.5999Z" stroke="white" stroke-opacity="0.3" stroke-width="0.786401" style="mix-blend-mode:overlay"/>
<path d="M946.12 -9.59834L989.501 15.6012L1032.88 -9.59834L989.501 -34.7979L946.12 -9.59834Z" stroke="white" stroke-opacity="0.3" stroke-width="0.786401" style="mix-blend-mode:overlay"/>
<path d="M946.12 -9.59961V40.7994L989.5 65.9989V15.5999L946.12 -9.59961Z" stroke="white" stroke-opacity="0.3" stroke-width="0.786401" style="mix-blend-mode:overlay"/>
<path d="M1032.88 -9.59961V40.7994L1076.26 65.9989V15.5999L1032.88 -9.59961Z" stroke="white" stroke-opacity="0.3" stroke-width="0.786401" style="mix-blend-mode:overlay"/>
<path d="M989.501 15.6006V65.9996L1032.88 40.8001L989.501 15.6006Z" stroke="white" stroke-opacity="0.3" stroke-width="0.786401" style="mix-blend-mode:overlay"/>
<path d="M989.501 66.0003L1032.88 91.2095L1076.26 66.0003L1032.88 40.8008L989.501 66.0003Z" stroke="white" stroke-opacity="0.3" stroke-width="0.786401" style="mix-blend-mode:overlay"/>
<path d="M859.361 -9.59834L902.741 15.6012V66.0002L946.121 40.8007V-9.59834L902.741 -34.7979L859.361 -9.59834Z" stroke="white" stroke-opacity="0.3" stroke-width="0.786401" style="mix-blend-mode:overlay"/>
<path d="M815.981 15.5999L859.361 40.7994V-9.59961L815.981 15.5999Z" stroke="white" stroke-opacity="0.3" stroke-width="0.786401" style="mix-blend-mode:overlay"/>
<path d="M772.601 -9.59834L815.981 15.6012L859.361 -9.59834L815.981 -34.7979L772.601 -9.59834Z" stroke="white" stroke-opacity="0.3" stroke-width="0.786401" style="mix-blend-mode:overlay"/>
<path d="M772.6 -9.59961V40.7994L815.98 65.9989V15.5999L772.6 -9.59961Z" stroke="white" stroke-opacity="0.3" stroke-width="0.786401" style="mix-blend-mode:overlay"/>
<path d="M859.36 -9.59961V40.7994L902.74 65.9989V15.5999L859.36 -9.59961Z" stroke="white" stroke-opacity="0.3" stroke-width="0.786401" style="mix-blend-mode:overlay"/>
<path d="M815.981 15.6006V65.9996L859.361 40.8001L815.981 15.6006Z" stroke="white" stroke-opacity="0.3" stroke-width="0.786401" style="mix-blend-mode:overlay"/>
<path d="M815.98 66.0003L859.36 91.2095L902.74 66.0003L859.36 40.8008L815.98 66.0003Z" stroke="white" stroke-opacity="0.3" stroke-width="0.786401" style="mix-blend-mode:overlay"/>
<path d="M1206.4 91.1995L1249.78 116.399V166.798L1293.16 141.599V91.1995L1249.78 66L1206.4 91.1995Z" stroke="white" stroke-opacity="0.3" stroke-width="0.786401" style="mix-blend-mode:overlay"/>
<path d="M1163.02 116.399L1206.4 141.598V91.1992L1163.02 116.399Z" stroke="white" stroke-opacity="0.3" stroke-width="0.786401" style="mix-blend-mode:overlay"/>
<path d="M1119.64 91.1995L1163.02 116.399L1206.4 91.1995L1163.02 66L1119.64 91.1995Z" stroke="white" stroke-opacity="0.3" stroke-width="0.786401" style="mix-blend-mode:overlay"/>
<path d="M1119.64 91.1992V141.598L1163.02 166.798V116.399L1119.64 91.1992Z" stroke="white" stroke-opacity="0.3" stroke-width="0.786401" style="mix-blend-mode:overlay"/>
<path d="M1206.4 91.1992V141.598L1249.78 166.798V116.399L1206.4 91.1992Z" stroke="white" stroke-opacity="0.3" stroke-width="0.786401" style="mix-blend-mode:overlay"/>
<path d="M1163.02 116.398V166.797L1206.4 141.598L1163.02 116.398Z" stroke="white" stroke-opacity="0.3" stroke-width="0.786401" style="mix-blend-mode:overlay"/>
<path d="M1163.02 166.798L1206.4 192.007L1249.78 166.798L1206.4 141.599L1163.02 166.798Z" stroke="white" stroke-opacity="0.3" stroke-width="0.786401" style="mix-blend-mode:overlay"/>
<path d="M1032.88 91.1995L1076.26 116.399V166.798L1119.64 141.599V91.1995L1076.26 66L1032.88 91.1995Z" stroke="white" stroke-opacity="0.3" stroke-width="0.786401" style="mix-blend-mode:overlay"/>
<path d="M989.501 116.399L1032.88 141.598V91.1992L989.501 116.399Z" stroke="white" stroke-opacity="0.3" stroke-width="0.786401" style="mix-blend-mode:overlay"/>
<path d="M946.12 91.1995L989.501 116.399L1032.88 91.1995L989.501 66L946.12 91.1995Z" stroke="white" stroke-opacity="0.3" stroke-width="0.786401" style="mix-blend-mode:overlay"/>
<path d="M946.12 91.1992V141.598L989.5 166.798V116.399L946.12 91.1992Z" stroke="white" stroke-opacity="0.3" stroke-width="0.786401" style="mix-blend-mode:overlay"/>
<path d="M1032.88 91.1992V141.598L1076.26 166.798V116.399L1032.88 91.1992Z" stroke="white" stroke-opacity="0.3" stroke-width="0.786401" style="mix-blend-mode:overlay"/>
<path d="M989.501 116.398V166.797L1032.88 141.598L989.501 116.398Z" stroke="white" stroke-opacity="0.3" stroke-width="0.786401" style="mix-blend-mode:overlay"/>
<path d="M989.501 166.798L1032.88 192.007L1076.26 166.798L1032.88 141.599L989.501 166.798Z" stroke="white" stroke-opacity="0.3" stroke-width="0.786401" style="mix-blend-mode:overlay"/>
<path d="M859.361 91.1995L902.741 116.399V166.798L946.121 141.599V91.1995L902.741 66L859.361 91.1995Z" stroke="white" stroke-opacity="0.3" stroke-width="0.786401" style="mix-blend-mode:overlay"/>
<path d="M815.981 116.399L859.361 141.598V91.1992L815.981 116.399Z" stroke="white" stroke-opacity="0.3" stroke-width="0.786401" style="mix-blend-mode:overlay"/>
<path d="M772.601 91.1995L815.981 116.399L859.361 91.1995L815.981 66L772.601 91.1995Z" stroke="white" stroke-opacity="0.3" stroke-width="0.786401" style="mix-blend-mode:overlay"/>
<path d="M772.6 91.1992V141.598L815.98 166.798V116.399L772.6 91.1992Z" stroke="white" stroke-opacity="0.3" stroke-width="0.786401" style="mix-blend-mode:overlay"/>
<path d="M859.36 91.1992V141.598L902.74 166.798V116.399L859.36 91.1992Z" stroke="white" stroke-opacity="0.3" stroke-width="0.786401" style="mix-blend-mode:overlay"/>
<path d="M815.981 116.398V166.797L859.361 141.598L815.981 116.398Z" stroke="white" stroke-opacity="0.3" stroke-width="0.786401" style="mix-blend-mode:overlay"/>
<path d="M815.98 166.798L859.36 192.007L902.74 166.798L859.36 141.599L815.98 166.798Z" stroke="white" stroke-opacity="0.3" stroke-width="0.786401" style="mix-blend-mode:overlay"/>
<path d="M1206.4 191.997L1249.78 217.197V267.596L1293.16 242.396V191.997L1249.78 166.798L1206.4 191.997Z" stroke="white" stroke-opacity="0.3" stroke-width="0.786401" style="mix-blend-mode:overlay"/>
<path d="M1163.02 217.197L1206.4 242.396V191.997L1163.02 217.197Z" stroke="white" stroke-opacity="0.3" stroke-width="0.786401" style="mix-blend-mode:overlay"/>
<path d="M1119.64 191.997L1163.02 217.197L1206.4 191.997L1163.02 166.798L1119.64 191.997Z" stroke="white" stroke-opacity="0.3" stroke-width="0.786401" style="mix-blend-mode:overlay"/>
<path d="M1119.64 191.997V242.396L1163.02 267.596V217.197L1119.64 191.997Z" stroke="white" stroke-opacity="0.3" stroke-width="0.786401" style="mix-blend-mode:overlay"/>
<path d="M1206.4 191.997V242.396L1249.78 267.596V217.197L1206.4 191.997Z" stroke="white" stroke-opacity="0.3" stroke-width="0.786401" style="mix-blend-mode:overlay"/>
<path d="M1163.02 217.196V267.595L1206.4 242.396L1163.02 217.196Z" stroke="white" stroke-opacity="0.3" stroke-width="0.786401" style="mix-blend-mode:overlay"/>
<path d="M1163.02 267.596L1206.4 292.805L1249.78 267.596L1206.4 242.396L1163.02 267.596Z" stroke="white" stroke-opacity="0.3" stroke-width="0.786401" style="mix-blend-mode:overlay"/>
<path d="M1032.88 191.997L1076.26 217.197V267.596L1119.64 242.396V191.997L1076.26 166.798L1032.88 191.997Z" stroke="white" stroke-opacity="0.3" stroke-width="0.786401" style="mix-blend-mode:overlay"/>
<path d="M989.501 217.197L1032.88 242.396V191.997L989.501 217.197Z" stroke="white" stroke-opacity="0.3" stroke-width="0.786401" style="mix-blend-mode:overlay"/>
<path d="M946.12 191.997L989.501 217.197L1032.88 191.997L989.501 166.798L946.12 191.997Z" stroke="white" stroke-opacity="0.3" stroke-width="0.786401" style="mix-blend-mode:overlay"/>
<path d="M946.12 191.997V242.396L989.5 267.596V217.197L946.12 191.997Z" stroke="white" stroke-opacity="0.3" stroke-width="0.786401" style="mix-blend-mode:overlay"/>
<path d="M1032.88 191.997V242.396L1076.26 267.596V217.197L1032.88 191.997Z" stroke="white" stroke-opacity="0.3" stroke-width="0.786401" style="mix-blend-mode:overlay"/>
<path d="M989.501 217.196V267.595L1032.88 242.396L989.501 217.196Z" stroke="white" stroke-opacity="0.3" stroke-width="0.786401" style="mix-blend-mode:overlay"/>
<path d="M989.501 267.596L1032.88 292.805L1076.26 267.596L1032.88 242.396L989.501 267.596Z" stroke="white" stroke-opacity="0.3" stroke-width="0.786401" style="mix-blend-mode:overlay"/>
<path d="M859.361 191.997L902.741 217.197V267.596L946.121 242.396V191.997L902.741 166.798L859.361 191.997Z" stroke="white" stroke-opacity="0.3" stroke-width="0.786401" style="mix-blend-mode:overlay"/>
<path d="M815.981 217.197L859.361 242.396V191.997L815.981 217.197Z" stroke="white" stroke-opacity="0.3" stroke-width="0.786401" style="mix-blend-mode:overlay"/>
<path d="M772.601 191.997L815.981 217.197L859.361 191.997L815.981 166.798L772.601 191.997Z" stroke="white" stroke-opacity="0.3" stroke-width="0.786401" style="mix-blend-mode:overlay"/>
<path d="M772.6 191.997V242.396L815.98 267.596V217.197L772.6 191.997Z" stroke="white" stroke-opacity="0.3" stroke-width="0.786401" style="mix-blend-mode:overlay"/>
<path d="M859.36 191.997V242.396L902.74 267.596V217.197L859.36 191.997Z" stroke="white" stroke-opacity="0.3" stroke-width="0.786401" style="mix-blend-mode:overlay"/>
<path d="M815.981 217.196V267.595L859.361 242.396L815.981 217.196Z" stroke="white" stroke-opacity="0.3" stroke-width="0.786401" style="mix-blend-mode:overlay"/>
<path d="M815.98 267.596L859.36 292.805L902.74 267.596L859.36 242.396L815.98 267.596Z" stroke="white" stroke-opacity="0.3" stroke-width="0.786401" style="mix-blend-mode:overlay"/>
<path d="M1206.4 292.795L1249.78 317.995V368.394L1293.16 343.194V292.795L1249.78 267.596L1206.4 292.795Z" stroke="white" stroke-opacity="0.3" stroke-width="0.786401" style="mix-blend-mode:overlay"/>
<path d="M1163.02 317.995L1206.4 343.195V292.796L1163.02 317.995Z" stroke="white" stroke-opacity="0.3" stroke-width="0.786401" style="mix-blend-mode:overlay"/>
<path d="M1119.64 292.795L1163.02 317.995L1206.4 292.795L1163.02 267.596L1119.64 292.795Z" stroke="white" stroke-opacity="0.3" stroke-width="0.786401" style="mix-blend-mode:overlay"/>
<path d="M1119.64 292.796V343.195L1163.02 368.394V317.995L1119.64 292.796Z" stroke="white" stroke-opacity="0.3" stroke-width="0.786401" style="mix-blend-mode:overlay"/>
<path d="M1206.4 292.796V343.195L1249.78 368.394V317.995L1206.4 292.796Z" stroke="white" stroke-opacity="0.3" stroke-width="0.786401" style="mix-blend-mode:overlay"/>
<path d="M1163.02 317.995V368.394L1206.4 343.195L1163.02 317.995Z" stroke="white" stroke-opacity="0.3" stroke-width="0.786401" style="mix-blend-mode:overlay"/>
<path d="M1163.02 368.394L1206.4 393.603L1249.78 368.394L1206.4 343.194L1163.02 368.394Z" stroke="white" stroke-opacity="0.3" stroke-width="0.786401" style="mix-blend-mode:overlay"/>
<path d="M1032.88 292.795L1076.26 317.995V368.394L1119.64 343.194V292.795L1076.26 267.596L1032.88 292.795Z" stroke="white" stroke-opacity="0.3" stroke-width="0.786401" style="mix-blend-mode:overlay"/>
<path d="M989.501 317.995L1032.88 343.195V292.796L989.501 317.995Z" stroke="white" stroke-opacity="0.3" stroke-width="0.786401" style="mix-blend-mode:overlay"/>
<path d="M946.12 292.795L989.501 317.995L1032.88 292.795L989.501 267.596L946.12 292.795Z" stroke="white" stroke-opacity="0.3" stroke-width="0.786401" style="mix-blend-mode:overlay"/>
<path d="M946.12 292.796V343.195L989.5 368.394V317.995L946.12 292.796Z" stroke="white" stroke-opacity="0.3" stroke-width="0.786401" style="mix-blend-mode:overlay"/>
<path d="M1032.88 292.796V343.195L1076.26 368.394V317.995L1032.88 292.796Z" stroke="white" stroke-opacity="0.3" stroke-width="0.786401" style="mix-blend-mode:overlay"/>
<path d="M989.501 317.995V368.394L1032.88 343.195L989.501 317.995Z" stroke="white" stroke-opacity="0.3" stroke-width="0.786401" style="mix-blend-mode:overlay"/>
<path d="M989.501 368.394L1032.88 393.603L1076.26 368.394L1032.88 343.194L989.501 368.394Z" stroke="white" stroke-opacity="0.3" stroke-width="0.786401" style="mix-blend-mode:overlay"/>
<path d="M859.361 292.795L902.741 317.995V368.394L946.121 343.194V292.795L902.741 267.596L859.361 292.795Z" stroke="white" stroke-opacity="0.3" stroke-width="0.786401" style="mix-blend-mode:overlay"/>
<path d="M815.981 317.995L859.361 343.195V292.796L815.981 317.995Z" stroke="white" stroke-opacity="0.3" stroke-width="0.786401" style="mix-blend-mode:overlay"/>
<path d="M772.601 292.795L815.981 317.995L859.361 292.795L815.981 267.596L772.601 292.795Z" stroke="white" stroke-opacity="0.3" stroke-width="0.786401" style="mix-blend-mode:overlay"/>
<path d="M772.6 292.796V343.195L815.98 368.394V317.995L772.6 292.796Z" stroke="white" stroke-opacity="0.3" stroke-width="0.786401" style="mix-blend-mode:overlay"/>
<path d="M859.36 292.796V343.195L902.74 368.394V317.995L859.36 292.796Z" stroke="white" stroke-opacity="0.3" stroke-width="0.786401" style="mix-blend-mode:overlay"/>
<path d="M815.981 317.995V368.394L859.361 343.195L815.981 317.995Z" stroke="white" stroke-opacity="0.3" stroke-width="0.786401" style="mix-blend-mode:overlay"/>
<path d="M815.98 368.394L859.36 393.603L902.74 368.394L859.36 343.194L815.98 368.394Z" stroke="white" stroke-opacity="0.3" stroke-width="0.786401" style="mix-blend-mode:overlay"/>
<path d="M1206.4 393.603L1249.78 418.802V469.201L1293.16 444.002V393.603L1249.78 368.403L1206.4 393.603Z" stroke="white" stroke-opacity="0.3" stroke-width="0.786401" style="mix-blend-mode:overlay"/>
<path d="M1163.02 418.803L1206.4 444.003V393.604L1163.02 418.803Z" stroke="white" stroke-opacity="0.3" stroke-width="0.786401" style="mix-blend-mode:overlay"/>
<path d="M1119.64 393.603L1163.02 418.802L1206.4 393.603L1163.02 368.403L1119.64 393.603Z" stroke="white" stroke-opacity="0.3" stroke-width="0.786401" style="mix-blend-mode:overlay"/>
<path d="M1119.64 393.604V444.003L1163.02 469.202V418.803L1119.64 393.604Z" stroke="white" stroke-opacity="0.3" stroke-width="0.786401" style="mix-blend-mode:overlay"/>
<path d="M1206.4 393.604V444.003L1249.78 469.202V418.803L1206.4 393.604Z" stroke="white" stroke-opacity="0.3" stroke-width="0.786401" style="mix-blend-mode:overlay"/>
<path d="M1163.02 418.803V469.202L1206.4 444.002L1163.02 418.803Z" stroke="white" stroke-opacity="0.3" stroke-width="0.786401" style="mix-blend-mode:overlay"/>
<path d="M1163.02 469.201L1206.4 494.411L1249.78 469.201L1206.4 444.002L1163.02 469.201Z" stroke="white" stroke-opacity="0.3" stroke-width="0.786401" style="mix-blend-mode:overlay"/>
<path d="M1032.88 393.603L1076.26 418.802V469.201L1119.64 444.002V393.603L1076.26 368.403L1032.88 393.603Z" stroke="white" stroke-opacity="0.3" stroke-width="0.786401" style="mix-blend-mode:overlay"/>
<path d="M989.501 418.803L1032.88 444.003V393.604L989.501 418.803Z" stroke="white" stroke-opacity="0.3" stroke-width="0.786401" style="mix-blend-mode:overlay"/>
<path d="M946.12 393.603L989.501 418.802L1032.88 393.603L989.501 368.403L946.12 393.603Z" stroke="white" stroke-opacity="0.3" stroke-width="0.786401" style="mix-blend-mode:overlay"/>
<path d="M946.12 393.604V444.003L989.5 469.202V418.803L946.12 393.604Z" stroke="white" stroke-opacity="0.3" stroke-width="0.786401" style="mix-blend-mode:overlay"/>
<path d="M1032.88 393.604V444.003L1076.26 469.202V418.803L1032.88 393.604Z" stroke="white" stroke-opacity="0.3" stroke-width="0.786401" style="mix-blend-mode:overlay"/>
<path d="M989.501 418.803V469.202L1032.88 444.002L989.501 418.803Z" stroke="white" stroke-opacity="0.3" stroke-width="0.786401" style="mix-blend-mode:overlay"/>
<path d="M989.501 469.201L1032.88 494.411L1076.26 469.201L1032.88 444.002L989.501 469.201Z" stroke="white" stroke-opacity="0.3" stroke-width="0.786401" style="mix-blend-mode:overlay"/>
<path d="M859.361 393.603L902.741 418.802V469.201L946.121 444.002V393.603L902.741 368.403L859.361 393.603Z" stroke="white" stroke-opacity="0.3" stroke-width="0.786401" style="mix-blend-mode:overlay"/>
<path d="M815.981 418.803L859.361 444.003V393.604L815.981 418.803Z" stroke="white" stroke-opacity="0.3" stroke-width="0.786401" style="mix-blend-mode:overlay"/>
<path d="M772.601 393.603L815.981 418.802L859.361 393.603L815.981 368.403L772.601 393.603Z" stroke="white" stroke-opacity="0.3" stroke-width="0.786401" style="mix-blend-mode:overlay"/>
<path d="M772.6 393.604V444.003L815.98 469.202V418.803L772.6 393.604Z" stroke="white" stroke-opacity="0.3" stroke-width="0.786401" style="mix-blend-mode:overlay"/>
<path d="M859.36 393.604V444.003L902.74 469.202V418.803L859.36 393.604Z" stroke="white" stroke-opacity="0.3" stroke-width="0.786401" style="mix-blend-mode:overlay"/>
<path d="M815.981 418.803V469.202L859.361 444.002L815.981 418.803Z" stroke="white" stroke-opacity="0.3" stroke-width="0.786401" style="mix-blend-mode:overlay"/>
<path d="M815.98 469.201L859.36 494.411L902.74 469.201L859.36 444.002L815.98 469.201Z" stroke="white" stroke-opacity="0.3" stroke-width="0.786401" style="mix-blend-mode:overlay"/>
<path d="M35.9368 15.5999L-7.44336 40.7994V-9.59961L35.9368 15.5999Z" stroke="white" stroke-opacity="0.3" stroke-width="0.786401" style="mix-blend-mode:overlay"/>
<path d="M79.317 -9.59834L35.9368 15.6012L-7.44336 -9.59834L35.9368 -34.7979L79.317 -9.59834Z" stroke="white" stroke-opacity="0.3" stroke-width="0.786401" style="mix-blend-mode:overlay"/>
<path d="M79.3158 -9.59961V40.7994L35.9355 65.9989V15.5999L79.3158 -9.59961Z" stroke="white" stroke-opacity="0.3" stroke-width="0.786401" style="mix-blend-mode:overlay"/>
<path d="M35.9368 15.6006V65.9996L-7.44336 40.8001L35.9368 15.6006Z" stroke="white" stroke-opacity="0.3" stroke-width="0.786401" style="mix-blend-mode:overlay"/>
<path d="M35.9362 66.0003L-7.44401 91.2095L-50.8242 66.0003L-7.44401 40.8008L35.9362 66.0003Z" stroke="white" stroke-opacity="0.3" stroke-width="0.786401" style="mix-blend-mode:overlay"/>
<path d="M166.077 -9.59834L122.697 15.6012V66.0002L79.3164 40.8007V-9.59834L122.697 -34.7979L166.077 -9.59834Z" stroke="white" stroke-opacity="0.3" stroke-width="0.786401" style="mix-blend-mode:overlay"/>
<path d="M209.458 15.5999L166.078 40.7994V-9.59961L209.458 15.5999Z" stroke="white" stroke-opacity="0.3" stroke-width="0.786401" style="mix-blend-mode:overlay"/>
<path d="M252.839 -9.59834L209.458 15.6012L166.078 -9.59834L209.458 -34.7979L252.839 -9.59834Z" stroke="white" stroke-opacity="0.3" stroke-width="0.786401" style="mix-blend-mode:overlay"/>
<path d="M252.837 -9.59961V40.7994L209.457 65.9989V15.5999L252.837 -9.59961Z" stroke="white" stroke-opacity="0.3" stroke-width="0.786401" style="mix-blend-mode:overlay"/>
<path d="M209.458 15.6006V65.9996L166.078 40.8001L209.458 15.6006Z" stroke="white" stroke-opacity="0.3" stroke-width="0.786401" style="mix-blend-mode:overlay"/>
<path d="M209.458 66.0003L166.077 91.2095L122.697 66.0003L166.077 40.8008L209.458 66.0003Z" stroke="white" stroke-opacity="0.3" stroke-width="0.786401" style="mix-blend-mode:overlay"/>
<path d="M339.597 -9.59834L296.217 15.6012V66.0002L252.837 40.8007V-9.59834L296.217 -34.7979L339.597 -9.59834Z" stroke="white" stroke-opacity="0.3" stroke-width="0.786401" style="mix-blend-mode:overlay"/>
<path d="M382.978 15.5999L339.598 40.7994V-9.59961L382.978 15.5999Z" stroke="white" stroke-opacity="0.3" stroke-width="0.786401" style="mix-blend-mode:overlay"/>
<path d="M426.358 -9.59834L382.978 15.6012L339.598 -9.59834L382.978 -34.7979L426.358 -9.59834Z" stroke="white" stroke-opacity="0.3" stroke-width="0.786401" style="mix-blend-mode:overlay"/>
<path d="M426.359 -9.59961V40.7994L382.979 65.9989V15.5999L426.359 -9.59961Z" stroke="white" stroke-opacity="0.3" stroke-width="0.786401" style="mix-blend-mode:overlay"/>
<path d="M339.597 -9.59961V40.7994L296.217 65.9989V15.5999L339.597 -9.59961Z" stroke="white" stroke-opacity="0.3" stroke-width="0.786401" style="mix-blend-mode:overlay"/>
<path d="M382.978 15.6006V65.9996L339.598 40.8001L382.978 15.6006Z" stroke="white" stroke-opacity="0.3" stroke-width="0.786401" style="mix-blend-mode:overlay"/>
<path d="M382.977 66.0003L339.597 91.2095L296.217 66.0003L339.597 40.8008L382.977 66.0003Z" stroke="white" stroke-opacity="0.3" stroke-width="0.786401" style="mix-blend-mode:overlay"/>
<path d="M513.12 -9.59834L469.74 15.6012V66.0002L426.359 40.8007V-9.59834L469.74 -34.7979L513.12 -9.59834Z" stroke="white" stroke-opacity="0.3" stroke-width="0.786401" style="mix-blend-mode:overlay"/>
<path d="M556.499 15.5999L513.119 40.7994V-9.59961L556.499 15.5999Z" stroke="white" stroke-opacity="0.3" stroke-width="0.786401" style="mix-blend-mode:overlay"/>
<path d="M599.88 -9.59834L556.499 15.6012L513.119 -9.59834L556.499 -34.7979L599.88 -9.59834Z" stroke="white" stroke-opacity="0.3" stroke-width="0.786401" style="mix-blend-mode:overlay"/>
<path d="M599.88 -9.59961V40.7994L556.5 65.9989V15.5999L599.88 -9.59961Z" stroke="white" stroke-opacity="0.3" stroke-width="0.786401" style="mix-blend-mode:overlay"/>
<path d="M513.118 -9.59961V40.7994L469.738 65.9989V15.5999L513.118 -9.59961Z" stroke="white" stroke-opacity="0.3" stroke-width="0.786401" style="mix-blend-mode:overlay"/>
<path d="M556.499 15.6006V65.9996L513.119 40.8001L556.499 15.6006Z" stroke="white" stroke-opacity="0.3" stroke-width="0.786401" style="mix-blend-mode:overlay"/>
<path d="M556.499 66.0003L513.118 91.2095L469.738 66.0003L513.118 40.8008L556.499 66.0003Z" stroke="white" stroke-opacity="0.3" stroke-width="0.786401" style="mix-blend-mode:overlay"/>
<path d="M686.639 -9.59834L643.259 15.6012V66.0002L599.879 40.8007V-9.59834L643.259 -34.7979L686.639 -9.59834Z" stroke="white" stroke-opacity="0.3" stroke-width="0.786401" style="mix-blend-mode:overlay"/>
<path d="M730.019 15.5999L686.639 40.7994V-9.59961L730.019 15.5999Z" stroke="white" stroke-opacity="0.3" stroke-width="0.786401" style="mix-blend-mode:overlay"/>
<path d="M773.399 -9.59834L730.019 15.6012L686.639 -9.59834L730.019 -34.7979L773.399 -9.59834Z" stroke="white" stroke-opacity="0.3" stroke-width="0.786401" style="mix-blend-mode:overlay"/>
<path d="M773.4 -9.59961V40.7994L730.02 65.9989V15.5999L773.4 -9.59961Z" stroke="white" stroke-opacity="0.3" stroke-width="0.786401" style="mix-blend-mode:overlay"/>
<path d="M686.64 -9.59961V40.7994L643.26 65.9989V15.5999L686.64 -9.59961Z" stroke="white" stroke-opacity="0.3" stroke-width="0.786401" style="mix-blend-mode:overlay"/>
<path d="M730.019 15.6006V65.9996L686.639 40.8001L730.019 15.6006Z" stroke="white" stroke-opacity="0.3" stroke-width="0.786401" style="mix-blend-mode:overlay"/>
<path d="M730.02 66.0003L686.64 91.2095L643.26 66.0003L686.64 40.8008L730.02 66.0003Z" stroke="white" stroke-opacity="0.3" stroke-width="0.786401" style="mix-blend-mode:overlay"/>
<path d="M35.9368 116.399L-7.44336 141.598V91.1992L35.9368 116.399Z" stroke="white" stroke-opacity="0.3" stroke-width="0.786401" style="mix-blend-mode:overlay"/>
<path d="M79.317 91.1995L35.9368 116.399L-7.44336 91.1995L35.9368 66L79.317 91.1995Z" stroke="white" stroke-opacity="0.3" stroke-width="0.786401" style="mix-blend-mode:overlay"/>
<path d="M79.3158 91.1992V141.598L35.9355 166.798V116.399L79.3158 91.1992Z" stroke="white" stroke-opacity="0.3" stroke-width="0.786401" style="mix-blend-mode:overlay"/>
<path d="M35.9368 116.398V166.797L-7.44336 141.598L35.9368 116.398Z" stroke="white" stroke-opacity="0.3" stroke-width="0.786401" style="mix-blend-mode:overlay"/>
<path d="M35.9362 166.798L-7.44401 192.007L-50.8242 166.798L-7.44401 141.599L35.9362 166.798Z" stroke="white" stroke-opacity="0.3" stroke-width="0.786401" style="mix-blend-mode:overlay"/>
<path d="M166.077 91.1995L122.697 116.399V166.798L79.3164 141.599V91.1995L122.697 66L166.077 91.1995Z" stroke="white" stroke-opacity="0.3" stroke-width="0.786401" style="mix-blend-mode:overlay"/>
<path d="M209.458 116.399L166.078 141.598V91.1992L209.458 116.399Z" stroke="white" stroke-opacity="0.3" stroke-width="0.786401" style="mix-blend-mode:overlay"/>
<path d="M252.839 91.1995L209.458 116.399L166.078 91.1995L209.458 66L252.839 91.1995Z" stroke="white" stroke-opacity="0.3" stroke-width="0.786401" style="mix-blend-mode:overlay"/>
<path d="M252.837 91.1992V141.598L209.457 166.798V116.399L252.837 91.1992Z" stroke="white" stroke-opacity="0.3" stroke-width="0.786401" style="mix-blend-mode:overlay"/>
<path d="M166.077 91.1992V141.598L122.697 166.798V116.399L166.077 91.1992Z" stroke="white" stroke-opacity="0.3" stroke-width="0.786401" style="mix-blend-mode:overlay"/>
<path d="M209.458 116.398V166.797L166.078 141.598L209.458 116.398Z" stroke="white" stroke-opacity="0.3" stroke-width="0.786401" style="mix-blend-mode:overlay"/>
<path d="M209.458 166.798L166.077 192.007L122.697 166.798L166.077 141.599L209.458 166.798Z" stroke="white" stroke-opacity="0.3" stroke-width="0.786401" style="mix-blend-mode:overlay"/>
<path d="M339.597 91.1995L296.217 116.399V166.798L252.837 141.599V91.1995L296.217 66L339.597 91.1995Z" stroke="white" stroke-opacity="0.3" stroke-width="0.786401" style="mix-blend-mode:overlay"/>
<path d="M382.978 116.399L339.598 141.598V91.1992L382.978 116.399Z" stroke="white" stroke-opacity="0.3" stroke-width="0.786401" style="mix-blend-mode:overlay"/>
<path d="M426.358 91.1995L382.978 116.399L339.598 91.1995L382.978 66L426.358 91.1995Z" stroke="white" stroke-opacity="0.3" stroke-width="0.786401" style="mix-blend-mode:overlay"/>
<path d="M426.359 91.1992V141.598L382.979 166.798V116.399L426.359 91.1992Z" stroke="white" stroke-opacity="0.3" stroke-width="0.786401" style="mix-blend-mode:overlay"/>
<path d="M339.597 91.1992V141.598L296.217 166.798V116.399L339.597 91.1992Z" stroke="white" stroke-opacity="0.3" stroke-width="0.786401" style="mix-blend-mode:overlay"/>
<path d="M382.978 116.398V166.797L339.598 141.598L382.978 116.398Z" stroke="white" stroke-opacity="0.3" stroke-width="0.786401" style="mix-blend-mode:overlay"/>
<path d="M382.977 166.798L339.597 192.007L296.217 166.798L339.597 141.599L382.977 166.798Z" stroke="white" stroke-opacity="0.3" stroke-width="0.786401" style="mix-blend-mode:overlay"/>
<path d="M513.12 91.1995L469.74 116.399V166.798L426.359 141.599V91.1995L469.74 66L513.12 91.1995Z" stroke="white" stroke-opacity="0.3" stroke-width="0.786401" style="mix-blend-mode:overlay"/>
<path d="M556.499 116.399L513.119 141.598V91.1992L556.499 116.399Z" stroke="white" stroke-opacity="0.3" stroke-width="0.786401" style="mix-blend-mode:overlay"/>
<path d="M599.88 91.1995L556.499 116.399L513.119 91.1995L556.499 66L599.88 91.1995Z" stroke="white" stroke-opacity="0.3" stroke-width="0.786401" style="mix-blend-mode:overlay"/>
<path d="M599.88 91.1992V141.598L556.5 166.798V116.399L599.88 91.1992Z" stroke="white" stroke-opacity="0.3" stroke-width="0.786401" style="mix-blend-mode:overlay"/>
<path d="M513.118 91.1992V141.598L469.738 166.798V116.399L513.118 91.1992Z" stroke="white" stroke-opacity="0.3" stroke-width="0.786401" style="mix-blend-mode:overlay"/>
<path d="M556.499 116.398V166.797L513.119 141.598L556.499 116.398Z" stroke="white" stroke-opacity="0.3" stroke-width="0.786401" style="mix-blend-mode:overlay"/>
<path d="M556.499 166.798L513.118 192.007L469.738 166.798L513.118 141.599L556.499 166.798Z" stroke="white" stroke-opacity="0.3" stroke-width="0.786401" style="mix-blend-mode:overlay"/>
<path d="M686.639 91.1995L643.259 116.399V166.798L599.879 141.599V91.1995L643.259 66L686.639 91.1995Z" stroke="white" stroke-opacity="0.3" stroke-width="0.786401" style="mix-blend-mode:overlay"/>
<path d="M730.019 116.399L686.639 141.598V91.1992L730.019 116.399Z" stroke="white" stroke-opacity="0.3" stroke-width="0.786401" style="mix-blend-mode:overlay"/>
<path d="M773.399 91.1995L730.019 116.399L686.639 91.1995L730.019 66L773.399 91.1995Z" stroke="white" stroke-opacity="0.3" stroke-width="0.786401" style="mix-blend-mode:overlay"/>
<path d="M773.4 91.1992V141.598L730.02 166.798V116.399L773.4 91.1992Z" stroke="white" stroke-opacity="0.3" stroke-width="0.786401" style="mix-blend-mode:overlay"/>
<path d="M686.64 91.1992V141.598L643.26 166.798V116.399L686.64 91.1992Z" stroke="white" stroke-opacity="0.3" stroke-width="0.786401" style="mix-blend-mode:overlay"/>
<path d="M730.019 116.398V166.797L686.639 141.598L730.019 116.398Z" stroke="white" stroke-opacity="0.3" stroke-width="0.786401" style="mix-blend-mode:overlay"/>
<path d="M730.02 166.798L686.64 192.007L643.26 166.798L686.64 141.599L730.02 166.798Z" stroke="white" stroke-opacity="0.3" stroke-width="0.786401" style="mix-blend-mode:overlay"/>
<path d="M35.9368 217.197L-7.44336 242.396V191.997L35.9368 217.197Z" stroke="white" stroke-opacity="0.3" stroke-width="0.786401" style="mix-blend-mode:overlay"/>
<path d="M79.317 191.997L35.9368 217.197L-7.44336 191.997L35.9368 166.798L79.317 191.997Z" stroke="white" stroke-opacity="0.3" stroke-width="0.786401" style="mix-blend-mode:overlay"/>
<path d="M79.3158 191.997V242.396L35.9355 267.596V217.197L79.3158 191.997Z" stroke="white" stroke-opacity="0.3" stroke-width="0.786401" style="mix-blend-mode:overlay"/>
<path d="M35.9368 217.196V267.595L-7.44336 242.396L35.9368 217.196Z" stroke="white" stroke-opacity="0.3" stroke-width="0.786401" style="mix-blend-mode:overlay"/>
<path d="M35.9362 267.596L-7.44401 292.805L-50.8242 267.596L-7.44401 242.396L35.9362 267.596Z" stroke="white" stroke-opacity="0.3" stroke-width="0.786401" style="mix-blend-mode:overlay"/>
<path d="M166.077 191.997L122.697 217.197V267.596L79.3164 242.396V191.997L122.697 166.798L166.077 191.997Z" stroke="white" stroke-opacity="0.3" stroke-width="0.786401" style="mix-blend-mode:overlay"/>
<path d="M209.458 217.197L166.078 242.396V191.997L209.458 217.197Z" stroke="white" stroke-opacity="0.3" stroke-width="0.786401" style="mix-blend-mode:overlay"/>
<path d="M252.839 191.997L209.458 217.197L166.078 191.997L209.458 166.798L252.839 191.997Z" stroke="white" stroke-opacity="0.3" stroke-width="0.786401" style="mix-blend-mode:overlay"/>
<path d="M252.837 191.997V242.396L209.457 267.596V217.197L252.837 191.997Z" stroke="white" stroke-opacity="0.3" stroke-width="0.786401" style="mix-blend-mode:overlay"/>
<path d="M166.077 191.997V242.396L122.697 267.596V217.197L166.077 191.997Z" stroke="white" stroke-opacity="0.3" stroke-width="0.786401" style="mix-blend-mode:overlay"/>
<path d="M209.458 217.196V267.595L166.078 242.396L209.458 217.196Z" stroke="white" stroke-opacity="0.3" stroke-width="0.786401" style="mix-blend-mode:overlay"/>
<path d="M209.458 267.596L166.077 292.805L122.697 267.596L166.077 242.396L209.458 267.596Z" stroke="white" stroke-opacity="0.3" stroke-width="0.786401" style="mix-blend-mode:overlay"/>
<path d="M339.597 191.997L296.217 217.197V267.596L252.837 242.396V191.997L296.217 166.798L339.597 191.997Z" stroke="white" stroke-opacity="0.3" stroke-width="0.786401" style="mix-blend-mode:overlay"/>
<path d="M382.978 217.197L339.598 242.396V191.997L382.978 217.197Z" stroke="white" stroke-opacity="0.3" stroke-width="0.786401" style="mix-blend-mode:overlay"/>
<path d="M426.358 191.997L382.978 217.197L339.598 191.997L382.978 166.798L426.358 191.997Z" stroke="white" stroke-opacity="0.3" stroke-width="0.786401" style="mix-blend-mode:overlay"/>
<path d="M426.359 191.997V242.396L382.979 267.596V217.197L426.359 191.997Z" stroke="white" stroke-opacity="0.3" stroke-width="0.786401" style="mix-blend-mode:overlay"/>
<path d="M339.597 191.997V242.396L296.217 267.596V217.197L339.597 191.997Z" stroke="white" stroke-opacity="0.3" stroke-width="0.786401" style="mix-blend-mode:overlay"/>
<path d="M382.978 217.196V267.595L339.598 242.396L382.978 217.196Z" stroke="white" stroke-opacity="0.3" stroke-width="0.786401" style="mix-blend-mode:overlay"/>
<path d="M382.977 267.596L339.597 292.805L296.217 267.596L339.597 242.396L382.977 267.596Z" stroke="white" stroke-opacity="0.3" stroke-width="0.786401" style="mix-blend-mode:overlay"/>
<path d="M513.12 191.997L469.74 217.197V267.596L426.359 242.396V191.997L469.74 166.798L513.12 191.997Z" stroke="white" stroke-opacity="0.3" stroke-width="0.786401" style="mix-blend-mode:overlay"/>
<path d="M556.499 217.197L513.119 242.396V191.997L556.499 217.197Z" stroke="white" stroke-opacity="0.3" stroke-width="0.786401" style="mix-blend-mode:overlay"/>
<path d="M599.88 191.997L556.499 217.197L513.119 191.997L556.499 166.798L599.88 191.997Z" stroke="white" stroke-opacity="0.3" stroke-width="0.786401" style="mix-blend-mode:overlay"/>
<path d="M599.88 191.997V242.396L556.5 267.596V217.197L599.88 191.997Z" stroke="white" stroke-opacity="0.3" stroke-width="0.786401" style="mix-blend-mode:overlay"/>
<path d="M513.118 191.997V242.396L469.738 267.596V217.197L513.118 191.997Z" stroke="white" stroke-opacity="0.3" stroke-width="0.786401" style="mix-blend-mode:overlay"/>
<path d="M556.499 217.196V267.595L513.119 242.396L556.499 217.196Z" stroke="white" stroke-opacity="0.3" stroke-width="0.786401" style="mix-blend-mode:overlay"/>
<path d="M556.499 267.596L513.118 292.805L469.738 267.596L513.118 242.396L556.499 267.596Z" stroke="white" stroke-opacity="0.3" stroke-width="0.786401" style="mix-blend-mode:overlay"/>
<path d="M686.639 191.997L643.259 217.197V267.596L599.879 242.396V191.997L643.259 166.798L686.639 191.997Z" stroke="white" stroke-opacity="0.3" stroke-width="0.786401" style="mix-blend-mode:overlay"/>
<path d="M730.019 217.197L686.639 242.396V191.997L730.019 217.197Z" stroke="white" stroke-opacity="0.3" stroke-width="0.786401" style="mix-blend-mode:overlay"/>
<path d="M773.399 191.997L730.019 217.197L686.639 191.997L730.019 166.798L773.399 191.997Z" stroke="white" stroke-opacity="0.3" stroke-width="0.786401" style="mix-blend-mode:overlay"/>
<path d="M773.4 191.997V242.396L730.02 267.596V217.197L773.4 191.997Z" stroke="white" stroke-opacity="0.3" stroke-width="0.786401" style="mix-blend-mode:overlay"/>
<path d="M686.64 191.997V242.396L643.26 267.596V217.197L686.64 191.997Z" stroke="white" stroke-opacity="0.3" stroke-width="0.786401" style="mix-blend-mode:overlay"/>
<path d="M730.019 217.196V267.595L686.639 242.396L730.019 217.196Z" stroke="white" stroke-opacity="0.3" stroke-width="0.786401" style="mix-blend-mode:overlay"/>
<path d="M730.02 267.596L686.64 292.805L643.26 267.596L686.64 242.396L730.02 267.596Z" stroke="white" stroke-opacity="0.3" stroke-width="0.786401" style="mix-blend-mode:overlay"/>
<path d="M35.9368 317.995L-7.44336 343.195V292.796L35.9368 317.995Z" stroke="white" stroke-opacity="0.3" stroke-width="0.786401" style="mix-blend-mode:overlay"/>
<path d="M79.317 292.795L35.9368 317.995L-7.44336 292.795L35.9368 267.596L79.317 292.795Z" stroke="white" stroke-opacity="0.3" stroke-width="0.786401" style="mix-blend-mode:overlay"/>
<path d="M79.3158 292.796V343.195L35.9355 368.394V317.995L79.3158 292.796Z" stroke="white" stroke-opacity="0.3" stroke-width="0.786401" style="mix-blend-mode:overlay"/>
<path d="M35.9368 317.995V368.394L-7.44336 343.195L35.9368 317.995Z" stroke="white" stroke-opacity="0.3" stroke-width="0.786401" style="mix-blend-mode:overlay"/>
<path d="M35.9362 368.394L-7.44401 393.603L-50.8242 368.394L-7.44401 343.194L35.9362 368.394Z" stroke="white" stroke-opacity="0.3" stroke-width="0.786401" style="mix-blend-mode:overlay"/>
<path d="M166.077 292.795L122.697 317.995V368.394L79.3164 343.194V292.795L122.697 267.596L166.077 292.795Z" stroke="white" stroke-opacity="0.3" stroke-width="0.786401" style="mix-blend-mode:overlay"/>
<path d="M209.458 317.995L166.078 343.195V292.796L209.458 317.995Z" stroke="white" stroke-opacity="0.3" stroke-width="0.786401" style="mix-blend-mode:overlay"/>
<path d="M252.839 292.795L209.458 317.995L166.078 292.795L209.458 267.596L252.839 292.795Z" stroke="white" stroke-opacity="0.3" stroke-width="0.786401" style="mix-blend-mode:overlay"/>
<path d="M252.837 292.796V343.195L209.457 368.394V317.995L252.837 292.796Z" stroke="white" stroke-opacity="0.3" stroke-width="0.786401" style="mix-blend-mode:overlay"/>
<path d="M166.077 292.796V343.195L122.697 368.394V317.995L166.077 292.796Z" stroke="white" stroke-opacity="0.3" stroke-width="0.786401" style="mix-blend-mode:overlay"/>
<path d="M209.458 317.995V368.394L166.078 343.195L209.458 317.995Z" stroke="white" stroke-opacity="0.3" stroke-width="0.786401" style="mix-blend-mode:overlay"/>
<path d="M209.458 368.394L166.077 393.603L122.697 368.394L166.077 343.194L209.458 368.394Z" stroke="white" stroke-opacity="0.3" stroke-width="0.786401" style="mix-blend-mode:overlay"/>
<path d="M339.597 292.795L296.217 317.995V368.394L252.837 343.194V292.795L296.217 267.596L339.597 292.795Z" stroke="white" stroke-opacity="0.3" stroke-width="0.786401" style="mix-blend-mode:overlay"/>
<path d="M382.978 317.995L339.598 343.195V292.796L382.978 317.995Z" stroke="white" stroke-opacity="0.3" stroke-width="0.786401" style="mix-blend-mode:overlay"/>
<path d="M426.358 292.795L382.978 317.995L339.598 292.795L382.978 267.596L426.358 292.795Z" stroke="white" stroke-opacity="0.3" stroke-width="0.786401" style="mix-blend-mode:overlay"/>
<path d="M426.359 292.796V343.195L382.979 368.394V317.995L426.359 292.796Z" stroke="white" stroke-opacity="0.3" stroke-width="0.786401" style="mix-blend-mode:overlay"/>
<path d="M339.597 292.796V343.195L296.217 368.394V317.995L339.597 292.796Z" stroke="white" stroke-opacity="0.3" stroke-width="0.786401" style="mix-blend-mode:overlay"/>
<path d="M382.978 317.995V368.394L339.598 343.195L382.978 317.995Z" stroke="white" stroke-opacity="0.3" stroke-width="0.786401" style="mix-blend-mode:overlay"/>
<path d="M382.977 368.394L339.597 393.603L296.217 368.394L339.597 343.194L382.977 368.394Z" stroke="white" stroke-opacity="0.3" stroke-width="0.786401" style="mix-blend-mode:overlay"/>
<path d="M513.12 292.795L469.74 317.995V368.394L426.359 343.194V292.795L469.74 267.596L513.12 292.795Z" stroke="white" stroke-opacity="0.3" stroke-width="0.786401" style="mix-blend-mode:overlay"/>
<path d="M556.499 317.995L513.119 343.195V292.796L556.499 317.995Z" stroke="white" stroke-opacity="0.3" stroke-width="0.786401" style="mix-blend-mode:overlay"/>
<path d="M599.88 292.795L556.499 317.995L513.119 292.795L556.499 267.596L599.88 292.795Z" stroke="white" stroke-opacity="0.3" stroke-width="0.786401" style="mix-blend-mode:overlay"/>
<path d="M599.88 292.796V343.195L556.5 368.394V317.995L599.88 292.796Z" stroke="white" stroke-opacity="0.3" stroke-width="0.786401" style="mix-blend-mode:overlay"/>
<path d="M513.118 292.796V343.195L469.738 368.394V317.995L513.118 292.796Z" stroke="white" stroke-opacity="0.3" stroke-width="0.786401" style="mix-blend-mode:overlay"/>
<path d="M556.499 317.995V368.394L513.119 343.195L556.499 317.995Z" stroke="white" stroke-opacity="0.3" stroke-width="0.786401" style="mix-blend-mode:overlay"/>
<path d="M556.499 368.394L513.118 393.603L469.738 368.394L513.118 343.194L556.499 368.394Z" stroke="white" stroke-opacity="0.3" stroke-width="0.786401" style="mix-blend-mode:overlay"/>
<path d="M686.639 292.795L643.259 317.995V368.394L599.879 343.194V292.795L643.259 267.596L686.639 292.795Z" stroke="white" stroke-opacity="0.3" stroke-width="0.786401" style="mix-blend-mode:overlay"/>
<path d="M730.019 317.995L686.639 343.195V292.796L730.019 317.995Z" stroke="white" stroke-opacity="0.3" stroke-width="0.786401" style="mix-blend-mode:overlay"/>
<path d="M773.399 292.795L730.019 317.995L686.639 292.795L730.019 267.596L773.399 292.795Z" stroke="white" stroke-opacity="0.3" stroke-width="0.786401" style="mix-blend-mode:overlay"/>
<path d="M773.4 292.796V343.195L730.02 368.394V317.995L773.4 292.796Z" stroke="white" stroke-opacity="0.3" stroke-width="0.786401" style="mix-blend-mode:overlay"/>
<path d="M686.64 292.796V343.195L643.26 368.394V317.995L686.64 292.796Z" stroke="white" stroke-opacity="0.3" stroke-width="0.786401" style="mix-blend-mode:overlay"/>
<path d="M730.019 317.995V368.394L686.639 343.195L730.019 317.995Z" stroke="white" stroke-opacity="0.3" stroke-width="0.786401" style="mix-blend-mode:overlay"/>
<path d="M730.02 368.394L686.64 393.603L643.26 368.394L686.64 343.194L730.02 368.394Z" stroke="white" stroke-opacity="0.3" stroke-width="0.786401" style="mix-blend-mode:overlay"/>
<path d="M35.9368 418.803L-7.44336 444.003V393.604L35.9368 418.803Z" stroke="white" stroke-opacity="0.3" stroke-width="0.786401" style="mix-blend-mode:overlay"/>
<path d="M79.317 393.603L35.9368 418.802L-7.44336 393.603L35.9368 368.403L79.317 393.603Z" stroke="white" stroke-opacity="0.3" stroke-width="0.786401" style="mix-blend-mode:overlay"/>
<path d="M79.3158 393.604V444.003L35.9355 469.202V418.803L79.3158 393.604Z" stroke="white" stroke-opacity="0.3" stroke-width="0.786401" style="mix-blend-mode:overlay"/>
<path d="M35.9368 418.803V469.202L-7.44336 444.002L35.9368 418.803Z" stroke="white" stroke-opacity="0.3" stroke-width="0.786401" style="mix-blend-mode:overlay"/>
<path d="M35.9362 469.201L-7.44401 494.411L-50.8242 469.201L-7.44401 444.002L35.9362 469.201Z" stroke="white" stroke-opacity="0.3" stroke-width="0.786401" style="mix-blend-mode:overlay"/>
<path d="M166.077 393.603L122.697 418.802V469.201L79.3164 444.002V393.603L122.697 368.403L166.077 393.603Z" stroke="white" stroke-opacity="0.3" stroke-width="0.786401" style="mix-blend-mode:overlay"/>
<path d="M209.458 418.803L166.078 444.003V393.604L209.458 418.803Z" stroke="white" stroke-opacity="0.3" stroke-width="0.786401" style="mix-blend-mode:overlay"/>
<path d="M252.839 393.603L209.458 418.802L166.078 393.603L209.458 368.403L252.839 393.603Z" stroke="white" stroke-opacity="0.3" stroke-width="0.786401" style="mix-blend-mode:overlay"/>
<path d="M252.837 393.604V444.003L209.457 469.202V418.803L252.837 393.604Z" stroke="white" stroke-opacity="0.3" stroke-width="0.786401" style="mix-blend-mode:overlay"/>
<path d="M166.077 393.604V444.003L122.697 469.202V418.803L166.077 393.604Z" stroke="white" stroke-opacity="0.3" stroke-width="0.786401" style="mix-blend-mode:overlay"/>
<path d="M209.458 418.803V469.202L166.078 444.002L209.458 418.803Z" stroke="white" stroke-opacity="0.3" stroke-width="0.786401" style="mix-blend-mode:overlay"/>
<path d="M209.458 469.201L166.077 494.411L122.697 469.201L166.077 444.002L209.458 469.201Z" stroke="white" stroke-opacity="0.3" stroke-width="0.786401" style="mix-blend-mode:overlay"/>
<path d="M339.597 393.603L296.217 418.802V469.201L252.837 444.002V393.603L296.217 368.403L339.597 393.603Z" stroke="white" stroke-opacity="0.3" stroke-width="0.786401" style="mix-blend-mode:overlay"/>
<path d="M382.978 418.803L339.598 444.003V393.604L382.978 418.803Z" stroke="white" stroke-opacity="0.3" stroke-width="0.786401" style="mix-blend-mode:overlay"/>
<path d="M426.358 393.603L382.978 418.802L339.598 393.603L382.978 368.403L426.358 393.603Z" stroke="white" stroke-opacity="0.3" stroke-width="0.786401" style="mix-blend-mode:overlay"/>
<path d="M426.359 393.604V444.003L382.979 469.202V418.803L426.359 393.604Z" stroke="white" stroke-opacity="0.3" stroke-width="0.786401" style="mix-blend-mode:overlay"/>
<path d="M339.597 393.604V444.003L296.217 469.202V418.803L339.597 393.604Z" stroke="white" stroke-opacity="0.3" stroke-width="0.786401" style="mix-blend-mode:overlay"/>
<path d="M382.978 418.803V469.202L339.598 444.002L382.978 418.803Z" stroke="white" stroke-opacity="0.3" stroke-width="0.786401" style="mix-blend-mode:overlay"/>
<path d="M382.977 469.201L339.597 494.411L296.217 469.201L339.597 444.002L382.977 469.201Z" stroke="white" stroke-opacity="0.3" stroke-width="0.786401" style="mix-blend-mode:overlay"/>
<path d="M513.12 393.603L469.74 418.802V469.201L426.359 444.002V393.603L469.74 368.403L513.12 393.603Z" stroke="white" stroke-opacity="0.3" stroke-width="0.786401" style="mix-blend-mode:overlay"/>
<path d="M556.499 418.803L513.119 444.003V393.604L556.499 418.803Z" stroke="white" stroke-opacity="0.3" stroke-width="0.786401" style="mix-blend-mode:overlay"/>
<path d="M599.88 393.603L556.499 418.802L513.119 393.603L556.499 368.403L599.88 393.603Z" stroke="white" stroke-opacity="0.3" stroke-width="0.786401" style="mix-blend-mode:overlay"/>
<path d="M599.88 393.604V444.003L556.5 469.202V418.803L599.88 393.604Z" stroke="white" stroke-opacity="0.3" stroke-width="0.786401" style="mix-blend-mode:overlay"/>
<path d="M513.118 393.604V444.003L469.738 469.202V418.803L513.118 393.604Z" stroke="white" stroke-opacity="0.3" stroke-width="0.786401" style="mix-blend-mode:overlay"/>
<path d="M556.499 418.803V469.202L513.119 444.002L556.499 418.803Z" stroke="white" stroke-opacity="0.3" stroke-width="0.786401" style="mix-blend-mode:overlay"/>
<path d="M556.499 469.201L513.118 494.411L469.738 469.201L513.118 444.002L556.499 469.201Z" stroke="white" stroke-opacity="0.3" stroke-width="0.786401" style="mix-blend-mode:overlay"/>
<path d="M686.639 393.603L643.259 418.802V469.201L599.879 444.002V393.603L643.259 368.403L686.639 393.603Z" stroke="white" stroke-opacity="0.3" stroke-width="0.786401" style="mix-blend-mode:overlay"/>
<path d="M730.019 418.803L686.639 444.003V393.604L730.019 418.803Z" stroke="white" stroke-opacity="0.3" stroke-width="0.786401" style="mix-blend-mode:overlay"/>
<path d="M773.399 393.603L730.019 418.802L686.639 393.603L730.019 368.403L773.399 393.603Z" stroke="white" stroke-opacity="0.3" stroke-width="0.786401" style="mix-blend-mode:overlay"/>
<path d="M773.4 393.604V444.003L730.02 469.202V418.803L773.4 393.604Z" stroke="white" stroke-opacity="0.3" stroke-width="0.786401" style="mix-blend-mode:overlay"/>
<path d="M686.64 393.604V444.003L643.26 469.202V418.803L686.64 393.604Z" stroke="white" stroke-opacity="0.3" stroke-width="0.786401" style="mix-blend-mode:overlay"/>
<path d="M730.019 418.803V469.202L686.639 444.002L730.019 418.803Z" stroke="white" stroke-opacity="0.3" stroke-width="0.786401" style="mix-blend-mode:overlay"/>
<path d="M730.02 469.201L686.64 494.411L643.26 469.201L686.64 444.002L730.02 469.201Z" stroke="white" stroke-opacity="0.3" stroke-width="0.786401" style="mix-blend-mode:overlay"/>
</g>
<defs>
<clipPath id="clip0_1186_2783">
<rect width="1250" height="468" fill="white"/>
</clipPath>
</defs>
</svg>
