<svg width="15" height="15" viewBox="0 0 15 15" fill="none" xmlns="http://www.w3.org/2000/svg">
<path fill-rule="evenodd" clip-rule="evenodd" d="M8.76 1.19423C8.44049 0.87471 7.92244 0.87471 7.60292 1.19423C7.2834 1.51375 7.2834 2.03179 7.60292 2.35131L11.9328 6.68115H0.818182C0.366312 6.68115 0 7.04746 0 7.49933C0 7.9512 0.366312 8.31752 0.818182 8.31752H11.9342L7.60292 12.6488C7.2834 12.9683 7.2834 13.4863 7.60292 13.8059C7.92244 14.1254 8.44049 14.1254 8.76 13.8059L14.4873 8.07859C14.5577 8.00814 14.6126 7.92804 14.652 7.84254C14.7003 7.73817 14.7273 7.6219 14.7273 7.49933C14.7273 7.26073 14.6251 7.04599 14.4622 6.89643L8.76 1.19423Z" fill="white"/>
</svg>
