<svg width="24" height="24" viewBox="0 0 24 24" fill="none" xmlns="http://www.w3.org/2000/svg">
<path d="M21 12V15C21 15.2652 20.8946 15.5196 20.7071 15.7071C20.5196 15.8946 20.2652 16 20 16H4C3.73478 16 3.48043 15.8946 3.29289 15.7071C3.10536 15.5196 3 15.2652 3 15V5C3 4.73478 3.10536 4.48043 3.29289 4.29289C3.48043 4.10536 3.73478 4 4 4H13" stroke="#0D3FF0" stroke-width="2" stroke-linecap="round" stroke-linejoin="round"/>
<path d="M7 20H17" stroke="#0D3FF0" stroke-width="2" stroke-linecap="round" stroke-linejoin="round"/>
<path d="M9 16V20" stroke="#0D3FF0" stroke-width="2" stroke-linecap="round" stroke-linejoin="round"/>
<path d="M15 16V20" stroke="#0D3FF0" stroke-width="2" stroke-linecap="round" stroke-linejoin="round"/>
<path d="M17 4H21V8" stroke="#0D3FF0" stroke-width="2" stroke-linecap="round" stroke-linejoin="round"/>
<path d="M16 9L21 4" stroke="#0D3FF0" stroke-width="2" stroke-linecap="round" stroke-linejoin="round"/>
</svg>
