<svg width="58" height="26" viewBox="0 0 58 26" fill="none" xmlns="http://www.w3.org/2000/svg">
<path d="M1.74616 0H2.20025C3.20661 0.152 4.09025 0.892 4.10661 1.94C4.26616 5.656 4.08207 9.388 4.18843 13.108C4.25798 14.252 4.49116 15.492 5.35843 16.328C6.01707 17.008 7.00707 17.14 7.87843 17.396C7.87843 18.456 7.87843 19.52 7.87434 20.58C5.89025 20.344 3.73434 20.048 2.2207 18.644C0.53525 17.176 0.142523 14.86 -0.000659326 12.768V2.284C-0.0211139 1.188 0.674341 0.288 1.74616 0Z" fill="#032142"/>
<path d="M14.7721 0H15.2508C16.2612 0.176 17.1653 0.94 17.1203 2.008C17.2021 5.348 17.1244 8.692 17.153 12.032C17.1694 14.264 16.9239 16.772 15.1771 18.408C13.6635 19.988 11.4053 20.44 9.2903 20.608C9.28621 19.532 9.28621 18.46 9.2903 17.388C10.1698 17.14 11.1721 17.02 11.8267 16.328C12.6653 15.46 12.9271 14.232 12.9926 13.076C13.1071 9.376 12.9148 5.664 13.0744 1.964C13.0621 0.964 13.8598 0.272 14.7721 0Z" fill="#032142"/>
<path d="M21.5753 0H21.9967C22.7126 0.18 23.5062 0.592 23.5839 1.4C23.7803 3.524 23.6371 5.664 23.6289 7.796C25.0648 6.4 26.9671 5.308 29.0698 5.564C31.688 5.636 33.9544 7.612 34.5639 10.064C35.333 13.008 35.0344 16.548 32.8089 18.844C30.3666 21.416 25.6785 21.012 23.7026 18.08C23.6535 18.992 23.5226 20.196 22.4344 20.472C21.293 20.92 20.0412 19.948 20.123 18.78C20.0739 13.188 20.0862 7.592 20.1189 2C20.0453 1.056 20.6957 0.3 21.5753 0ZM26.6235 8.42C23.858 9.36 23.4244 12.852 24.1771 15.248C24.7498 17.204 27.3148 18.42 29.1476 17.276C31.3444 15.912 31.4466 12.9 30.7635 10.696C30.2807 9.02 28.3744 7.816 26.6235 8.42Z" fill="#032142"/>
<path d="M37.8287 0.547812C38.9496 -0.348188 40.9541 0.543812 40.8232 2.00781C40.9582 3.35581 39.285 4.28781 38.1068 3.68781C36.7855 3.23581 36.6177 1.23181 37.8287 0.547812Z" fill="#032142"/>
<path d="M38.1394 5.65597C39.428 5.07197 40.9621 6.21997 40.8026 7.57197C40.8067 11.312 40.8599 15.06 40.778 18.8C40.774 20.18 38.929 21.136 37.8162 20.212C36.9449 19.632 37.0226 18.52 37.0144 17.616C37.0389 14.276 36.998 10.936 37.0349 7.59997C36.9735 6.79597 37.3867 6.00397 38.1394 5.65597Z" fill="#032142"/>
<path d="M44.8198 7.45601C47.2089 4.82001 52.1834 4.86801 54.1062 8.01201C54.2412 7.12001 54.2984 6.00801 55.3089 5.62401C56.5812 5.10001 57.9353 6.26001 57.7757 7.54801C57.8125 12.76 57.7716 17.976 57.7962 23.188C57.8371 24.248 57.6448 25.464 56.5812 26H55.4725C54.8139 25.796 54.2944 25.276 54.2698 24.58C54.0735 22.508 54.2248 20.42 54.2084 18.34C52.7603 19.76 50.7721 20.796 48.6653 20.528C46.0348 20.336 43.9034 18.232 43.2857 15.796C42.5739 13.004 42.8071 9.70401 44.8198 7.45601ZM49.1807 8.48801C47.2989 9.22401 46.6362 11.388 46.7466 13.212C46.718 15.008 47.6016 17.092 49.5162 17.612C51.4757 18.148 53.4312 16.604 53.8075 14.752C54.1144 13.076 54.1471 11.16 53.0957 9.70801C52.2653 8.52001 50.5675 7.93601 49.1807 8.48801Z" fill="#032142"/>
</svg>
