<svg width="128" height="141" viewBox="0 0 128 141" fill="none" xmlns="http://www.w3.org/2000/svg">
<path d="M65.8084 42.5417C47.051 44.479 37.0765 68.6205 43.0424 83.9292C44.3918 87.3925 46.5687 90.4439 49.0144 93.2297C50.2351 94.6203 52.6618 96.7783 52.9752 97.3417C53.324 97.4404 51.2124 104.475 50.6019 107.273C48.9283 114.948 46.9645 122.557 45.291 130.233C44.7244 132.831 42.5716 140.384 42.5716 140.803C42.9043 140.803 50.7128 140.982 52.313 140.803C52.9752 139.479 53.107 138.069 53.6483 135.793C55.2052 129.248 56.763 122.688 58.1968 116.114C59.3894 110.645 60.6095 105.129 62.0249 99.7143C62.5619 97.6603 64.2325 92.0442 64.2325 92.0442C63.7139 91.2644 58.3742 87.8673 56.7309 86.1735C51.8449 81.1376 49.8299 73.8122 51.7542 67.0304C53.0142 62.5889 56.1466 57.6103 59.4575 54.9615C60.4479 54.0746 62.7685 52.975 65.8084 52.203C65.8084 50.9884 66.0794 42.3799 65.8084 42.5417ZM76.6666 42.5417C76.6826 45.025 76.6745 52.3128 76.6745 52.3128C78.661 52.975 82.0091 54.9075 83.8221 56.3059C88.1766 59.6638 91.2502 64.5561 91.839 70.0477C92.5667 76.8326 89.8406 82.7357 84.9636 87.3825C83.402 88.8705 78.1384 92.3355 78.1384 92.7064C78.1384 93.1919 80.3908 101.314 81.1768 104.27C83.3596 112.473 88.6641 127.826 88.7335 127.964C88.8029 128.103 90.7201 133.762 90.7201 133.762L99.3285 133.924C99.3285 133.924 95.0041 120.841 92.5416 110.747C91.6561 107.116 89.3957 101.977 89.3957 98.6661C89.3957 98.0671 92.4776 94.9214 93.8678 93.4392C96.5303 90.5986 98.7293 87.1887 100.135 83.5622C106.504 67.137 96.3766 43.3091 76.6666 42.5417Z" fill="#4378DB"/>
<path d="M31.5432 14.9522C33.1095 17.857 39.0408 26.6447 38.5999 27.1235C37.0826 28.7712 31.7747 33.6617 29.7163 36.1617C23.3292 43.9211 19.6779 53.1623 18.4586 63.1158C18.2483 64.8353 17.8791 67.5434 17.8791 69.53L29.1363 68.8678C29.1363 68.8678 29.3239 66.1644 29.3995 64.9202C29.5839 61.895 30.3951 58.6521 31.3973 55.795C35.1506 45.0991 45.0987 33.986 56.2861 31.1229C54.3314 27.6963 50.3264 19.8657 50.3264 19.8657C51.035 18.5222 55.9903 16.8735 57.2985 16.6575C61.3987 15.9806 65.6991 15.3856 69.8588 15.6987C84.0136 16.7626 97.1721 23.9599 106.231 34.8593C109.245 38.4854 114.248 47.7351 114.248 47.7351C114.248 47.7351 124.492 45.0289 125.154 45.0289C124.492 43.7046 122.253 38.6744 121.325 36.9956C117.28 29.6824 111.939 22.9582 105.287 17.857C83.3612 1.04164 54.8107 0.893317 31.5432 14.9522ZM38.5958 123.224C39.3896 120.487 44.6437 110.432 45.0289 110.586C48.3399 111.91 48.977 112.164 50.5341 112.708C54.2942 114.022 57.9679 114.561 61.9193 114.877C73.0214 115.766 79.1629 115.34 89.1114 110.66C88.7166 108.54 86.7469 101.315 86.1287 100.177C84.7603 100.653 80.1573 102.454 78.1164 103.136C73.2799 104.751 67.7935 105.562 62.6977 105.154C57.6084 104.746 52.0797 102.48 47.729 99.8984C45.8959 98.811 41.7179 96.6798 39.7314 95.3554C39.7314 95.3554 32.9201 105.154 32.4473 105.154C28.345 104.227 21.3517 93.6837 19.6485 90.1309C13.9881 78.3221 12.4373 63.8376 17.0094 51.3934C19.2463 45.3055 25.131 35.5342 25.8254 34.4339C23.8973 33.1407 17.8791 28.4742 17.8791 28.4742C16.5547 29.7986 14.2279 33.1758 13.2699 34.8633C9.4461 41.599 5.74918 49.5802 5.02948 57.3983C3.184 77.4484 7.33873 95.6646 21.3018 110.704C25.6946 115.435 32.24 121.472 38.5958 123.224Z" fill="#4378DB"/>
</svg>
