<svg width="920" height="271" viewBox="0 0 920 271" fill="none" xmlns="http://www.w3.org/2000/svg">
<g clip-path="url(#clip0_1488_35962)">
<rect y="172" width="920" height="99" fill="url(#paint0_linear_1488_35962)"/>
<g opacity="0.4" clip-path="url(#clip1_1488_35962)">
<path d="M894.795 35.9179L921.89 51.6713V83.1781L948.986 67.4247V35.9179L921.89 20.1644L894.795 35.9179Z" stroke="white" stroke-opacity="0.3" stroke-width="0.991081" style="mix-blend-mode:overlay"/>
<path d="M868.329 51.0411L894.795 66.7946V35.2877L868.329 51.0411Z" stroke="white" stroke-opacity="0.3" stroke-width="0.991081" style="mix-blend-mode:overlay"/>
<path d="M841.863 35.9179L868.329 51.6713L894.795 35.9179L868.329 20.1644L841.863 35.9179Z" stroke="white" stroke-opacity="0.3" stroke-width="0.991081" style="mix-blend-mode:overlay"/>
<path d="M841.863 35.2877V67.2147L868.329 83.1781V51.2512L841.863 35.2877Z" stroke="white" stroke-opacity="0.3" stroke-width="0.991081" style="mix-blend-mode:overlay"/>
<path d="M894.794 35.2877V67.2147L922.521 83.1781V51.2512L894.794 35.2877Z" stroke="white" stroke-opacity="0.3" stroke-width="0.991081" style="mix-blend-mode:overlay"/>
<path d="M868.329 51.6713V83.1781L894.795 67.4247L868.329 51.6713Z" stroke="white" stroke-opacity="0.3" stroke-width="0.991081" style="mix-blend-mode:overlay"/>
<path d="M868.329 82.5449L895.425 98.3014L922.521 82.5449L895.425 66.7946L868.329 82.5449Z" stroke="white" stroke-opacity="0.3" stroke-width="0.991081" style="mix-blend-mode:overlay"/>
<path d="M786.411 35.9179L814.137 51.6713V83.1781L841.863 67.4247V35.9179L814.137 20.1644L786.411 35.9179Z" stroke="white" stroke-opacity="0.3" stroke-width="0.991081" style="mix-blend-mode:overlay"/>
<path d="M759.945 51.0411L786.411 66.7946V35.2877L759.945 51.0411Z" stroke="white" stroke-opacity="0.3" stroke-width="0.991081" style="mix-blend-mode:overlay"/>
<path d="M732.219 35.9179L759.315 51.6713L786.411 35.9179L759.315 20.1644L732.219 35.9179Z" stroke="white" stroke-opacity="0.3" stroke-width="0.991081" style="mix-blend-mode:overlay"/>
<path d="M732.219 35.2877V67.2147L759.945 83.1781V51.2512L732.219 35.2877Z" stroke="white" stroke-opacity="0.3" stroke-width="0.991081" style="mix-blend-mode:overlay"/>
<path d="M786.411 35.2877V67.2147L814.137 83.1781V51.2512L786.411 35.2877Z" stroke="white" stroke-opacity="0.3" stroke-width="0.991081" style="mix-blend-mode:overlay"/>
<path d="M759.945 51.6713V83.1781L786.411 67.4247L759.945 51.6713Z" stroke="white" stroke-opacity="0.3" stroke-width="0.991081" style="mix-blend-mode:overlay"/>
<path d="M759.945 82.5449L787.041 98.3014L814.137 82.5449L787.041 66.7946L759.945 82.5449Z" stroke="white" stroke-opacity="0.3" stroke-width="0.991081" style="mix-blend-mode:overlay"/>
<path d="M894.795 98.9315L921.89 114.685V146.192L948.986 130.438V98.9315L921.89 83.1781L894.795 98.9315Z" stroke="white" stroke-opacity="0.3" stroke-width="0.991081" style="mix-blend-mode:overlay"/>
<path d="M868.329 114.055L894.795 129.808V98.3014L868.329 114.055Z" stroke="white" stroke-opacity="0.3" stroke-width="0.991081" style="mix-blend-mode:overlay"/>
<path d="M841.863 98.9315L868.329 114.685L894.795 98.9315L868.329 83.1781L841.863 98.9315Z" stroke="white" stroke-opacity="0.3" stroke-width="0.991081" style="mix-blend-mode:overlay"/>
<path d="M841.863 98.3014V130.228L868.329 146.192V114.265L841.863 98.3014Z" stroke="white" stroke-opacity="0.3" stroke-width="0.991081" style="mix-blend-mode:overlay"/>
<path d="M894.794 98.3014V130.228L922.521 146.192V114.265L894.794 98.3014Z" stroke="white" stroke-opacity="0.3" stroke-width="0.991081" style="mix-blend-mode:overlay"/>
<path d="M868.329 114.685V146.192L894.795 130.438L868.329 114.685Z" stroke="white" stroke-opacity="0.3" stroke-width="0.991081" style="mix-blend-mode:overlay"/>
<path d="M868.329 145.559L895.425 161.315L922.521 145.559L895.425 129.808L868.329 145.559Z" stroke="white" stroke-opacity="0.3" stroke-width="0.991081" style="mix-blend-mode:overlay"/>
<path d="M786.411 98.9315L814.137 114.685V146.192L841.863 130.438V98.9315L814.137 83.1781L786.411 98.9315Z" stroke="white" stroke-opacity="0.3" stroke-width="0.991081" style="mix-blend-mode:overlay"/>
<path d="M759.945 114.055L786.411 129.808V98.3014L759.945 114.055Z" stroke="white" stroke-opacity="0.3" stroke-width="0.991081" style="mix-blend-mode:overlay"/>
<path d="M732.219 98.9315L759.315 114.685L786.411 98.9315L759.315 83.1781L732.219 98.9315Z" stroke="white" stroke-opacity="0.3" stroke-width="0.991081" style="mix-blend-mode:overlay"/>
<path d="M732.219 98.3014V130.228L759.945 146.192V114.265L732.219 98.3014Z" stroke="white" stroke-opacity="0.3" stroke-width="0.991081" style="mix-blend-mode:overlay"/>
<path d="M759.945 114.685V146.192L786.411 130.438L759.945 114.685Z" stroke="white" stroke-opacity="0.3" stroke-width="0.991081" style="mix-blend-mode:overlay"/>
<path d="M759.945 145.559L787.041 161.315L814.137 145.559L787.041 129.808L759.945 145.559Z" stroke="white" stroke-opacity="0.3" stroke-width="0.991081" style="mix-blend-mode:overlay"/>
<path d="M570.904 98.9315L598 114.685V146.192L625.096 130.438V98.9315L598 83.1781L570.904 98.9315Z" stroke="white" stroke-opacity="0.3" stroke-width="0.991081" style="mix-blend-mode:overlay"/>
<path d="M570.904 98.3014V130.228L597.37 146.192V114.265L570.904 98.3014Z" stroke="white" stroke-opacity="0.3" stroke-width="0.991081" style="mix-blend-mode:overlay"/>
<path d="M894.795 161.63L921.89 177.069V207.945L948.986 192.507V161.63L921.89 146.192L894.795 161.63Z" stroke="white" stroke-opacity="0.3" stroke-width="0.991081" style="mix-blend-mode:overlay"/>
<path d="M868.329 177.069L894.795 192.822V161.315L868.329 177.069Z" stroke="white" stroke-opacity="0.3" stroke-width="0.991081" style="mix-blend-mode:overlay"/>
<path d="M841.863 161.315L868.329 176.438L894.795 161.315L868.329 146.192L841.863 161.315Z" stroke="white" stroke-opacity="0.3" stroke-width="0.991081" style="mix-blend-mode:overlay"/>
<path d="M841.863 161.315V192.402L868.329 207.945V176.858L841.863 161.315Z" stroke="white" stroke-opacity="0.3" stroke-width="0.991081" style="mix-blend-mode:overlay"/>
<path d="M894.794 161.315V192.402L922.521 207.945V176.858L894.794 161.315Z" stroke="white" stroke-opacity="0.3" stroke-width="0.991081" style="mix-blend-mode:overlay"/>
<path d="M868.329 176.438V207.945L894.795 192.192L868.329 176.438Z" stroke="white" stroke-opacity="0.3" stroke-width="0.991081" style="mix-blend-mode:overlay"/>
<path d="M868.329 208.572L895.425 224.329L922.521 208.572L895.425 192.822L868.329 208.572Z" stroke="white" stroke-opacity="0.3" stroke-width="0.991081" style="mix-blend-mode:overlay"/>
<path d="M786.411 161.63L814.137 177.069V207.945L841.863 192.507V161.63L814.137 146.192L786.411 161.63Z" stroke="white" stroke-opacity="0.3" stroke-width="0.991081" style="mix-blend-mode:overlay"/>
<path d="M759.945 177.069L786.411 192.822V161.315L759.945 177.069Z" stroke="white" stroke-opacity="0.3" stroke-width="0.991081" style="mix-blend-mode:overlay"/>
<path d="M732.219 161.315L759.315 176.438L786.411 161.315L759.315 146.192L732.219 161.315Z" stroke="white" stroke-opacity="0.3" stroke-width="0.991081" style="mix-blend-mode:overlay"/>
<path d="M732.219 161.315V192.402L759.945 207.945V176.858L732.219 161.315Z" stroke="white" stroke-opacity="0.3" stroke-width="0.991081" style="mix-blend-mode:overlay"/>
<path d="M786.411 161.315V192.402L814.137 207.945V176.858L786.411 161.315Z" stroke="white" stroke-opacity="0.3" stroke-width="0.991081" style="mix-blend-mode:overlay"/>
<path d="M759.945 176.438V207.945L786.411 192.192L759.945 176.438Z" stroke="white" stroke-opacity="0.3" stroke-width="0.991081" style="mix-blend-mode:overlay"/>
<path d="M570.904 161.63L598 177.069V207.945L625.096 192.507V161.63L598 146.192L570.904 161.63Z" stroke="white" stroke-opacity="0.3" stroke-width="0.991081" style="mix-blend-mode:overlay"/>
<path d="M570.904 161.315V192.402L597.37 207.945V176.858L570.904 161.315Z" stroke="white" stroke-opacity="0.3" stroke-width="0.991081" style="mix-blend-mode:overlay"/>
<path d="M894.795 223.699L921.89 239.452V270.959L948.986 255.206V223.699L921.89 207.945L894.795 223.699Z" stroke="white" stroke-opacity="0.3" stroke-width="0.991081" style="mix-blend-mode:overlay"/>
<path d="M868.329 240.082L894.795 255.836V224.329L868.329 240.082Z" stroke="white" stroke-opacity="0.3" stroke-width="0.991081" style="mix-blend-mode:overlay"/>
<path d="M841.863 223.699L868.329 239.452L894.795 223.699L868.329 207.945L841.863 223.699Z" stroke="white" stroke-opacity="0.3" stroke-width="0.991081" style="mix-blend-mode:overlay"/>
<path d="M841.863 224.329V255.416L868.329 270.959V239.872L841.863 224.329Z" stroke="white" stroke-opacity="0.3" stroke-width="0.991081" style="mix-blend-mode:overlay"/>
<path d="M894.794 224.329V255.416L922.521 270.959V239.872L894.794 224.329Z" stroke="white" stroke-opacity="0.3" stroke-width="0.991081" style="mix-blend-mode:overlay"/>
<path d="M868.329 239.452V270.959L894.795 255.206L868.329 239.452Z" stroke="white" stroke-opacity="0.3" stroke-width="0.991081" style="mix-blend-mode:overlay"/>
<path d="M868.329 271.586L895.425 287.343L922.521 271.586L895.425 255.836L868.329 271.586Z" stroke="white" stroke-opacity="0.3" stroke-width="0.991081" style="mix-blend-mode:overlay"/>
<path d="M786.411 223.699L814.137 239.452V270.959L841.863 255.206V223.699L814.137 207.945L786.411 223.699Z" stroke="white" stroke-opacity="0.3" stroke-width="0.991081" style="mix-blend-mode:overlay"/>
<path d="M759.945 240.082L786.411 255.836V224.329L759.945 240.082Z" stroke="white" stroke-opacity="0.3" stroke-width="0.991081" style="mix-blend-mode:overlay"/>
<path d="M732.219 223.699L759.315 239.452L786.411 223.699L759.315 207.945L732.219 223.699Z" stroke="white" stroke-opacity="0.3" stroke-width="0.991081" style="mix-blend-mode:overlay"/>
<path d="M732.219 224.329V255.416L759.945 270.959V239.872L732.219 224.329Z" stroke="white" stroke-opacity="0.3" stroke-width="0.991081" style="mix-blend-mode:overlay"/>
<path d="M786.411 224.329V255.416L814.137 270.959V239.872L786.411 224.329Z" stroke="white" stroke-opacity="0.3" stroke-width="0.991081" style="mix-blend-mode:overlay"/>
<path d="M759.945 239.452V270.959L786.411 255.206L759.945 239.452Z" stroke="white" stroke-opacity="0.3" stroke-width="0.991081" style="mix-blend-mode:overlay"/>
<path d="M759.945 271.586L787.041 287.343L814.137 271.586L787.041 255.836L759.945 271.586Z" stroke="white" stroke-opacity="0.3" stroke-width="0.991081" style="mix-blend-mode:overlay"/>
<path d="M679.287 223.699L705.753 239.452V270.959L732.219 255.206V223.699L705.753 207.945L679.287 223.699Z" stroke="white" stroke-opacity="0.3" stroke-width="0.991081" style="mix-blend-mode:overlay"/>
<path d="M651.562 240.082L679.288 255.836V224.329L651.562 240.082Z" stroke="white" stroke-opacity="0.3" stroke-width="0.991081" style="mix-blend-mode:overlay"/>
<path d="M625.096 223.699L652.192 239.452L679.288 223.699L652.192 207.945L625.096 223.699Z" stroke="white" stroke-opacity="0.3" stroke-width="0.991081" style="mix-blend-mode:overlay"/>
<path d="M625.096 224.329V255.416L651.562 270.959V239.872L625.096 224.329Z" stroke="white" stroke-opacity="0.3" stroke-width="0.991081" style="mix-blend-mode:overlay"/>
<path d="M679.288 224.329V255.416L705.754 270.959V239.872L679.288 224.329Z" stroke="white" stroke-opacity="0.3" stroke-width="0.991081" style="mix-blend-mode:overlay"/>
<path d="M651.562 239.452V270.959L679.288 255.206L651.562 239.452Z" stroke="white" stroke-opacity="0.3" stroke-width="0.991081" style="mix-blend-mode:overlay"/>
<path d="M651.562 271.586L678.658 287.343L705.754 271.586L678.658 255.836L651.562 271.586Z" stroke="white" stroke-opacity="0.3" stroke-width="0.991081" style="mix-blend-mode:overlay"/>
<path d="M570.904 223.699L598 239.452V270.959L625.096 255.206V223.699L598 207.945L570.904 223.699Z" stroke="white" stroke-opacity="0.3" stroke-width="0.991081" style="mix-blend-mode:overlay"/>
<path d="M543.178 240.082L570.904 255.836V224.329L543.178 240.082Z" stroke="white" stroke-opacity="0.3" stroke-width="0.991081" style="mix-blend-mode:overlay"/>
<path d="M516.712 224.329V255.416L543.178 270.959V239.872L516.712 224.329Z" stroke="white" stroke-opacity="0.3" stroke-width="0.991081" style="mix-blend-mode:overlay"/>
<path d="M570.904 224.329V255.416L597.37 270.959V239.872L570.904 224.329Z" stroke="white" stroke-opacity="0.3" stroke-width="0.991081" style="mix-blend-mode:overlay"/>
<path d="M543.178 239.452V270.959L570.904 255.206L543.178 239.452Z" stroke="white" stroke-opacity="0.3" stroke-width="0.991081" style="mix-blend-mode:overlay"/>
<path d="M543.178 271.586L570.274 287.343L597.37 271.586L570.274 255.836L543.178 271.586Z" stroke="white" stroke-opacity="0.3" stroke-width="0.991081" style="mix-blend-mode:overlay"/>
<path d="M894.795 286.712L921.89 302.466V333.973L948.986 318.219V286.712L921.89 270.959L894.795 286.712Z" stroke="white" stroke-opacity="0.3" stroke-width="0.991081" style="mix-blend-mode:overlay"/>
<path d="M841.863 286.712L868.329 302.466L894.795 286.712L868.329 270.959L841.863 286.712Z" stroke="white" stroke-opacity="0.3" stroke-width="0.991081" style="mix-blend-mode:overlay"/>
<path d="M786.411 286.712L814.137 302.466V333.973L841.863 318.219V286.712L814.137 270.959L786.411 286.712Z" stroke="white" stroke-opacity="0.3" stroke-width="0.991081" style="mix-blend-mode:overlay"/>
<path d="M732.219 286.712L759.315 302.466L786.411 286.712L759.315 270.959L732.219 286.712Z" stroke="white" stroke-opacity="0.3" stroke-width="0.991081" style="mix-blend-mode:overlay"/>
<path d="M679.287 286.712L705.753 302.466V333.973L732.219 318.219V286.712L705.753 270.959L679.287 286.712Z" stroke="white" stroke-opacity="0.3" stroke-width="0.991081" style="mix-blend-mode:overlay"/>
<path d="M625.096 286.712L652.192 302.466L679.288 286.712L652.192 270.959L625.096 286.712Z" stroke="white" stroke-opacity="0.3" stroke-width="0.991081" style="mix-blend-mode:overlay"/>
<path d="M570.904 286.712L598 302.466V333.973L625.096 318.219V286.712L598 270.959L570.904 286.712Z" stroke="white" stroke-opacity="0.3" stroke-width="0.991081" style="mix-blend-mode:overlay"/>
<path d="M516.713 286.712L543.808 302.466L570.904 286.712L543.808 270.959L516.713 286.712Z" stroke="white" stroke-opacity="0.3" stroke-width="0.991081" style="mix-blend-mode:overlay"/>
<path d="M30.2465 35.9179L3.15058 51.6713V83.1781L-23.9453 67.4247V35.9179L3.15058 20.1644L30.2465 35.9179Z" stroke="white" stroke-opacity="0.3" stroke-width="0.991081" style="mix-blend-mode:overlay"/>
<path d="M56.7118 51.0411L30.2461 66.7946V35.2877L56.7118 51.0411Z" stroke="white" stroke-opacity="0.3" stroke-width="0.991081" style="mix-blend-mode:overlay"/>
<path d="M30.2465 35.2877V67.2147L2.52051 83.1781V51.2512L30.2465 35.2877Z" stroke="white" stroke-opacity="0.3" stroke-width="0.991081" style="mix-blend-mode:overlay"/>
<path d="M56.7118 51.6713V83.1781L30.2461 67.4247L56.7118 51.6713Z" stroke="white" stroke-opacity="0.3" stroke-width="0.991081" style="mix-blend-mode:overlay"/>
<path d="M56.7123 82.5449L29.6164 98.3014L2.52051 82.5449L29.6164 66.7946L56.7123 82.5449Z" stroke="white" stroke-opacity="0.3" stroke-width="0.991081" style="mix-blend-mode:overlay"/>
<path d="M192.822 35.2877V67.2147L165.096 83.1781V51.2512L192.822 35.2877Z" stroke="white" stroke-opacity="0.3" stroke-width="0.991081" style="mix-blend-mode:overlay"/>
<path d="M165.096 82.5449L138 98.3014L110.904 82.5449L138 66.7946L165.096 82.5449Z" stroke="white" stroke-opacity="0.3" stroke-width="0.991081" style="mix-blend-mode:overlay"/>
<path d="M409.589 35.2877V67.2147L381.863 83.1781V51.2512L409.589 35.2877Z" stroke="white" stroke-opacity="0.3" stroke-width="0.991081" style="mix-blend-mode:overlay"/>
<path d="M30.2465 98.9315L3.15058 114.685V146.192L-23.9453 130.438V98.9315L3.15058 83.1781L30.2465 98.9315Z" stroke="white" stroke-opacity="0.3" stroke-width="0.991081" style="mix-blend-mode:overlay"/>
<path d="M56.7118 114.055L30.2461 129.808V98.3014L56.7118 114.055Z" stroke="white" stroke-opacity="0.3" stroke-width="0.991081" style="mix-blend-mode:overlay"/>
<path d="M84.4379 98.9315L57.342 114.685L30.2461 98.9315L57.342 83.1781L84.4379 98.9315Z" stroke="white" stroke-opacity="0.3" stroke-width="0.991081" style="mix-blend-mode:overlay"/>
<path d="M84.4379 98.3014V130.228L56.7119 146.192V114.265L84.4379 98.3014Z" stroke="white" stroke-opacity="0.3" stroke-width="0.991081" style="mix-blend-mode:overlay"/>
<path d="M30.2465 98.3014V130.228L2.52051 146.192V114.265L30.2465 98.3014Z" stroke="white" stroke-opacity="0.3" stroke-width="0.991081" style="mix-blend-mode:overlay"/>
<path d="M56.7118 114.685V146.192L30.2461 130.438L56.7118 114.685Z" stroke="white" stroke-opacity="0.3" stroke-width="0.991081" style="mix-blend-mode:overlay"/>
<path d="M56.7123 145.559L29.6164 161.315L2.52051 145.559L29.6164 129.808L56.7123 145.559Z" stroke="white" stroke-opacity="0.3" stroke-width="0.991081" style="mix-blend-mode:overlay"/>
<path d="M138.63 98.9315L111.534 114.685V146.192L84.4385 130.438V98.9315L111.534 83.1781L138.63 98.9315Z" stroke="white" stroke-opacity="0.3" stroke-width="0.991081" style="mix-blend-mode:overlay"/>
<path d="M165.096 114.055L138.63 129.808V98.3014L165.096 114.055Z" stroke="white" stroke-opacity="0.3" stroke-width="0.991081" style="mix-blend-mode:overlay"/>
<path d="M192.822 98.9315L165.726 114.685L138.63 98.9315L165.726 83.1781L192.822 98.9315Z" stroke="white" stroke-opacity="0.3" stroke-width="0.991081" style="mix-blend-mode:overlay"/>
<path d="M192.822 98.3014V130.228L165.096 146.192V114.265L192.822 98.3014Z" stroke="white" stroke-opacity="0.3" stroke-width="0.991081" style="mix-blend-mode:overlay"/>
<path d="M138.63 98.3014V130.228L110.904 146.192V114.265L138.63 98.3014Z" stroke="white" stroke-opacity="0.3" stroke-width="0.991081" style="mix-blend-mode:overlay"/>
<path d="M165.096 114.685V146.192L138.63 130.438L165.096 114.685Z" stroke="white" stroke-opacity="0.3" stroke-width="0.991081" style="mix-blend-mode:overlay"/>
<path d="M165.096 145.559L138 161.315L110.904 145.559L138 129.808L165.096 145.559Z" stroke="white" stroke-opacity="0.3" stroke-width="0.991081" style="mix-blend-mode:overlay"/>
<path d="M273.479 114.055L247.014 129.808V98.3014L273.479 114.055Z" stroke="white" stroke-opacity="0.3" stroke-width="0.991081" style="mix-blend-mode:overlay"/>
<path d="M299.945 98.3014V130.228L273.479 146.192V114.265L299.945 98.3014Z" stroke="white" stroke-opacity="0.3" stroke-width="0.991081" style="mix-blend-mode:overlay"/>
<path d="M273.479 114.685V146.192L247.014 130.438L273.479 114.685Z" stroke="white" stroke-opacity="0.3" stroke-width="0.991081" style="mix-blend-mode:overlay"/>
<path d="M273.48 145.559L246.384 161.315L219.288 145.559L246.384 129.808L273.48 145.559Z" stroke="white" stroke-opacity="0.3" stroke-width="0.991081" style="mix-blend-mode:overlay"/>
<path d="M381.863 114.055L354.137 129.808V98.3014L381.863 114.055Z" stroke="white" stroke-opacity="0.3" stroke-width="0.991081" style="mix-blend-mode:overlay"/>
<path d="M409.589 98.3014V130.228L381.863 146.192V114.265L409.589 98.3014Z" stroke="white" stroke-opacity="0.3" stroke-width="0.991081" style="mix-blend-mode:overlay"/>
<path d="M381.863 114.685V146.192L354.137 130.438L381.863 114.685Z" stroke="white" stroke-opacity="0.3" stroke-width="0.991081" style="mix-blend-mode:overlay"/>
<path d="M490.247 114.055L462.521 129.808V98.3014L490.247 114.055Z" stroke="white" stroke-opacity="0.3" stroke-width="0.991081" style="mix-blend-mode:overlay"/>
<path d="M462.52 98.3014V130.228L436.055 146.192V114.265L462.52 98.3014Z" stroke="white" stroke-opacity="0.3" stroke-width="0.991081" style="mix-blend-mode:overlay"/>
<path d="M490.247 114.685V146.192L462.521 130.438L490.247 114.685Z" stroke="white" stroke-opacity="0.3" stroke-width="0.991081" style="mix-blend-mode:overlay"/>
<path d="M490.246 145.559L463.151 161.315L436.055 145.559L463.151 129.808L490.246 145.559Z" stroke="white" stroke-opacity="0.3" stroke-width="0.991081" style="mix-blend-mode:overlay"/>
<path d="M30.2465 161.63L3.15058 177.069V207.945L-23.9453 192.507V161.63L3.15058 146.192L30.2465 161.63Z" stroke="white" stroke-opacity="0.3" stroke-width="0.991081" style="mix-blend-mode:overlay"/>
<path d="M56.7118 177.069L30.2461 192.822V161.315L56.7118 177.069Z" stroke="white" stroke-opacity="0.3" stroke-width="0.991081" style="mix-blend-mode:overlay"/>
<path d="M84.4379 161.315L57.342 176.438L30.2461 161.315L57.342 146.192L84.4379 161.315Z" stroke="white" stroke-opacity="0.3" stroke-width="0.991081" style="mix-blend-mode:overlay"/>
<path d="M84.4379 161.315V192.402L56.7119 207.945V176.858L84.4379 161.315Z" stroke="white" stroke-opacity="0.3" stroke-width="0.991081" style="mix-blend-mode:overlay"/>
<path d="M30.2465 161.315V192.402L2.52051 207.945V176.858L30.2465 161.315Z" stroke="white" stroke-opacity="0.3" stroke-width="0.991081" style="mix-blend-mode:overlay"/>
<path d="M56.7118 176.438V207.945L30.2461 192.192L56.7118 176.438Z" stroke="white" stroke-opacity="0.3" stroke-width="0.991081" style="mix-blend-mode:overlay"/>
<path d="M56.7123 208.572L29.6164 224.329L2.52051 208.572L29.6164 192.822L56.7123 208.572Z" stroke="white" stroke-opacity="0.3" stroke-width="0.991081" style="mix-blend-mode:overlay"/>
<path d="M138.63 161.63L111.534 177.069V207.945L84.4385 192.507V161.63L111.534 146.192L138.63 161.63Z" stroke="white" stroke-opacity="0.3" stroke-width="0.991081" style="mix-blend-mode:overlay"/>
<path d="M165.096 177.069L138.63 192.822V161.315L165.096 177.069Z" stroke="white" stroke-opacity="0.3" stroke-width="0.991081" style="mix-blend-mode:overlay"/>
<path d="M192.822 161.315L165.726 176.438L138.63 161.315L165.726 146.192L192.822 161.315Z" stroke="white" stroke-opacity="0.3" stroke-width="0.991081" style="mix-blend-mode:overlay"/>
<path d="M192.822 161.315V192.402L165.096 207.945V176.858L192.822 161.315Z" stroke="white" stroke-opacity="0.3" stroke-width="0.991081" style="mix-blend-mode:overlay"/>
<path d="M138.63 161.315V192.402L110.904 207.945V176.858L138.63 161.315Z" stroke="white" stroke-opacity="0.3" stroke-width="0.991081" style="mix-blend-mode:overlay"/>
<path d="M165.096 176.438V207.945L138.63 192.192L165.096 176.438Z" stroke="white" stroke-opacity="0.3" stroke-width="0.991081" style="mix-blend-mode:overlay"/>
<path d="M165.096 208.572L138 224.329L110.904 208.572L138 192.822L165.096 208.572Z" stroke="white" stroke-opacity="0.3" stroke-width="0.991081" style="mix-blend-mode:overlay"/>
<path d="M247.014 161.63L219.918 177.069V207.945L192.822 192.507V161.63L219.918 146.192L247.014 161.63Z" stroke="white" stroke-opacity="0.3" stroke-width="0.991081" style="mix-blend-mode:overlay"/>
<path d="M273.479 177.069L247.014 192.822V161.315L273.479 177.069Z" stroke="white" stroke-opacity="0.3" stroke-width="0.991081" style="mix-blend-mode:overlay"/>
<path d="M299.945 161.315L273.479 176.438L247.014 161.315L273.479 146.192L299.945 161.315Z" stroke="white" stroke-opacity="0.3" stroke-width="0.991081" style="mix-blend-mode:overlay"/>
<path d="M299.945 161.315V192.402L273.479 207.945V176.858L299.945 161.315Z" stroke="white" stroke-opacity="0.3" stroke-width="0.991081" style="mix-blend-mode:overlay"/>
<path d="M247.014 161.315V192.402L219.288 207.945V176.858L247.014 161.315Z" stroke="white" stroke-opacity="0.3" stroke-width="0.991081" style="mix-blend-mode:overlay"/>
<path d="M273.479 176.438V207.945L247.014 192.192L273.479 176.438Z" stroke="white" stroke-opacity="0.3" stroke-width="0.991081" style="mix-blend-mode:overlay"/>
<path d="M354.137 161.63L327.041 177.069V207.945L299.945 192.507V161.63L327.041 146.192L354.137 161.63Z" stroke="white" stroke-opacity="0.3" stroke-width="0.991081" style="mix-blend-mode:overlay"/>
<path d="M381.863 177.069L354.137 192.822V161.315L381.863 177.069Z" stroke="white" stroke-opacity="0.3" stroke-width="0.991081" style="mix-blend-mode:overlay"/>
<path d="M409.589 161.315L381.863 176.438L354.137 161.315L381.863 146.192L409.589 161.315Z" stroke="white" stroke-opacity="0.3" stroke-width="0.991081" style="mix-blend-mode:overlay"/>
<path d="M409.589 161.315V192.402L381.863 207.945V176.858L409.589 161.315Z" stroke="white" stroke-opacity="0.3" stroke-width="0.991081" style="mix-blend-mode:overlay"/>
<path d="M354.137 161.315V192.402L327.671 207.945V176.858L354.137 161.315Z" stroke="white" stroke-opacity="0.3" stroke-width="0.991081" style="mix-blend-mode:overlay"/>
<path d="M381.863 176.438V207.945L354.137 192.192L381.863 176.438Z" stroke="white" stroke-opacity="0.3" stroke-width="0.991081" style="mix-blend-mode:overlay"/>
<path d="M462.52 161.63L436.055 177.069V207.945L409.589 192.507V161.63L436.055 146.192L462.52 161.63Z" stroke="white" stroke-opacity="0.3" stroke-width="0.991081" style="mix-blend-mode:overlay"/>
<path d="M490.247 177.069L462.521 192.822V161.315L490.247 177.069Z" stroke="white" stroke-opacity="0.3" stroke-width="0.991081" style="mix-blend-mode:overlay"/>
<path d="M462.52 161.315V192.402L436.055 207.945V176.858L462.52 161.315Z" stroke="white" stroke-opacity="0.3" stroke-width="0.991081" style="mix-blend-mode:overlay"/>
<path d="M490.247 176.438V207.945L462.521 192.192L490.247 176.438Z" stroke="white" stroke-opacity="0.3" stroke-width="0.991081" style="mix-blend-mode:overlay"/>
<path d="M490.246 208.572L463.151 224.329L436.055 208.572L463.151 192.822L490.246 208.572Z" stroke="white" stroke-opacity="0.3" stroke-width="0.991081" style="mix-blend-mode:overlay"/>
<path d="M30.2465 223.699L3.15058 239.452V270.959L-23.9453 255.206V223.699L3.15058 207.945L30.2465 223.699Z" stroke="white" stroke-opacity="0.3" stroke-width="0.991081" style="mix-blend-mode:overlay"/>
<path d="M56.7118 240.082L30.2461 255.836V224.329L56.7118 240.082Z" stroke="white" stroke-opacity="0.3" stroke-width="0.991081" style="mix-blend-mode:overlay"/>
<path d="M84.4379 223.699L57.342 239.452L30.2461 223.699L57.342 207.945L84.4379 223.699Z" stroke="white" stroke-opacity="0.3" stroke-width="0.991081" style="mix-blend-mode:overlay"/>
<path d="M84.4379 224.329V255.416L56.7119 270.959V239.872L84.4379 224.329Z" stroke="white" stroke-opacity="0.3" stroke-width="0.991081" style="mix-blend-mode:overlay"/>
<path d="M30.2465 224.329V255.416L2.52051 270.959V239.872L30.2465 224.329Z" stroke="white" stroke-opacity="0.3" stroke-width="0.991081" style="mix-blend-mode:overlay"/>
<path d="M56.7118 239.452V270.959L30.2461 255.206L56.7118 239.452Z" stroke="white" stroke-opacity="0.3" stroke-width="0.991081" style="mix-blend-mode:overlay"/>
<path d="M56.7123 271.586L29.6164 287.343L2.52051 271.586L29.6164 255.836L56.7123 271.586Z" stroke="white" stroke-opacity="0.3" stroke-width="0.991081" style="mix-blend-mode:overlay"/>
<path d="M138.63 223.699L111.534 239.452V270.959L84.4385 255.206V223.699L111.534 207.945L138.63 223.699Z" stroke="white" stroke-opacity="0.3" stroke-width="0.991081" style="mix-blend-mode:overlay"/>
<path d="M165.096 240.082L138.63 255.836V224.329L165.096 240.082Z" stroke="white" stroke-opacity="0.3" stroke-width="0.991081" style="mix-blend-mode:overlay"/>
<path d="M192.822 223.699L165.726 239.452L138.63 223.699L165.726 207.945L192.822 223.699Z" stroke="white" stroke-opacity="0.3" stroke-width="0.991081" style="mix-blend-mode:overlay"/>
<path d="M192.822 224.329V255.416L165.096 270.959V239.872L192.822 224.329Z" stroke="white" stroke-opacity="0.3" stroke-width="0.991081" style="mix-blend-mode:overlay"/>
<path d="M138.63 224.329V255.416L110.904 270.959V239.872L138.63 224.329Z" stroke="white" stroke-opacity="0.3" stroke-width="0.991081" style="mix-blend-mode:overlay"/>
<path d="M165.096 239.452V270.959L138.63 255.206L165.096 239.452Z" stroke="white" stroke-opacity="0.3" stroke-width="0.991081" style="mix-blend-mode:overlay"/>
<path d="M165.096 271.586L138 287.343L110.904 271.586L138 255.836L165.096 271.586Z" stroke="white" stroke-opacity="0.3" stroke-width="0.991081" style="mix-blend-mode:overlay"/>
<path d="M247.014 223.699L219.918 239.452V270.959L192.822 255.206V223.699L219.918 207.945L247.014 223.699Z" stroke="white" stroke-opacity="0.3" stroke-width="0.991081" style="mix-blend-mode:overlay"/>
<path d="M273.479 240.082L247.014 255.836V224.329L273.479 240.082Z" stroke="white" stroke-opacity="0.3" stroke-width="0.991081" style="mix-blend-mode:overlay"/>
<path d="M299.945 223.699L273.479 239.452L247.014 223.699L273.479 207.945L299.945 223.699Z" stroke="white" stroke-opacity="0.3" stroke-width="0.991081" style="mix-blend-mode:overlay"/>
<path d="M299.945 224.329V255.416L273.479 270.959V239.872L299.945 224.329Z" stroke="white" stroke-opacity="0.3" stroke-width="0.991081" style="mix-blend-mode:overlay"/>
<path d="M247.014 224.329V255.416L219.288 270.959V239.872L247.014 224.329Z" stroke="white" stroke-opacity="0.3" stroke-width="0.991081" style="mix-blend-mode:overlay"/>
<path d="M273.479 239.452V270.959L247.014 255.206L273.479 239.452Z" stroke="white" stroke-opacity="0.3" stroke-width="0.991081" style="mix-blend-mode:overlay"/>
<path d="M273.48 271.586L246.384 287.343L219.288 271.586L246.384 255.836L273.48 271.586Z" stroke="white" stroke-opacity="0.3" stroke-width="0.991081" style="mix-blend-mode:overlay"/>
<path d="M354.137 223.699L327.041 239.452V270.959L299.945 255.206V223.699L327.041 207.945L354.137 223.699Z" stroke="white" stroke-opacity="0.3" stroke-width="0.991081" style="mix-blend-mode:overlay"/>
<path d="M381.863 240.082L354.137 255.836V224.329L381.863 240.082Z" stroke="white" stroke-opacity="0.3" stroke-width="0.991081" style="mix-blend-mode:overlay"/>
<path d="M409.589 223.699L381.863 239.452L354.137 223.699L381.863 207.945L409.589 223.699Z" stroke="white" stroke-opacity="0.3" stroke-width="0.991081" style="mix-blend-mode:overlay"/>
<path d="M409.589 224.329V255.416L381.863 270.959V239.872L409.589 224.329Z" stroke="white" stroke-opacity="0.3" stroke-width="0.991081" style="mix-blend-mode:overlay"/>
<path d="M354.137 224.329V255.416L327.671 270.959V239.872L354.137 224.329Z" stroke="white" stroke-opacity="0.3" stroke-width="0.991081" style="mix-blend-mode:overlay"/>
<path d="M381.863 239.452V270.959L354.137 255.206L381.863 239.452Z" stroke="white" stroke-opacity="0.3" stroke-width="0.991081" style="mix-blend-mode:overlay"/>
<path d="M381.863 271.586L354.767 287.343L327.671 271.586L354.767 255.836L381.863 271.586Z" stroke="white" stroke-opacity="0.3" stroke-width="0.991081" style="mix-blend-mode:overlay"/>
<path d="M462.52 223.699L436.055 239.452V270.959L409.589 255.206V223.699L436.055 207.945L462.52 223.699Z" stroke="white" stroke-opacity="0.3" stroke-width="0.991081" style="mix-blend-mode:overlay"/>
<path d="M490.247 240.082L462.521 255.836V224.329L490.247 240.082Z" stroke="white" stroke-opacity="0.3" stroke-width="0.991081" style="mix-blend-mode:overlay"/>
<path d="M516.712 224.329V255.416L490.246 270.959V239.872L516.712 224.329Z" stroke="white" stroke-opacity="0.3" stroke-width="0.991081" style="mix-blend-mode:overlay"/>
<path d="M462.52 224.329V255.416L436.055 270.959V239.872L462.52 224.329Z" stroke="white" stroke-opacity="0.3" stroke-width="0.991081" style="mix-blend-mode:overlay"/>
<path d="M490.247 239.452V270.959L462.521 255.206L490.247 239.452Z" stroke="white" stroke-opacity="0.3" stroke-width="0.991081" style="mix-blend-mode:overlay"/>
<path d="M490.246 271.586L463.151 287.343L436.055 271.586L463.151 255.836L490.246 271.586Z" stroke="white" stroke-opacity="0.3" stroke-width="0.991081" style="mix-blend-mode:overlay"/>
<path d="M30.2465 286.712L3.15058 302.466V333.973L-23.9453 318.219V286.712L3.15058 270.959L30.2465 286.712Z" stroke="white" stroke-opacity="0.3" stroke-width="0.991081" style="mix-blend-mode:overlay"/>
<path d="M84.4379 286.712L57.342 302.466L30.2461 286.712L57.342 270.959L84.4379 286.712Z" stroke="white" stroke-opacity="0.3" stroke-width="0.991081" style="mix-blend-mode:overlay"/>
<path d="M138.63 286.712L111.534 302.466V333.973L84.4385 318.219V286.712L111.534 270.959L138.63 286.712Z" stroke="white" stroke-opacity="0.3" stroke-width="0.991081" style="mix-blend-mode:overlay"/>
<path d="M192.822 286.712L165.726 302.466L138.63 286.712L165.726 270.959L192.822 286.712Z" stroke="white" stroke-opacity="0.3" stroke-width="0.991081" style="mix-blend-mode:overlay"/>
<path d="M247.014 286.712L219.918 302.466V333.973L192.822 318.219V286.712L219.918 270.959L247.014 286.712Z" stroke="white" stroke-opacity="0.3" stroke-width="0.991081" style="mix-blend-mode:overlay"/>
<path d="M299.945 286.712L273.479 302.466L247.014 286.712L273.479 270.959L299.945 286.712Z" stroke="white" stroke-opacity="0.3" stroke-width="0.991081" style="mix-blend-mode:overlay"/>
<path d="M354.137 286.712L327.041 302.466V333.973L299.945 318.219V286.712L327.041 270.959L354.137 286.712Z" stroke="white" stroke-opacity="0.3" stroke-width="0.991081" style="mix-blend-mode:overlay"/>
<path d="M409.589 286.712L381.863 302.466L354.137 286.712L381.863 270.959L409.589 286.712Z" stroke="white" stroke-opacity="0.3" stroke-width="0.991081" style="mix-blend-mode:overlay"/>
<path d="M462.52 286.712L436.055 302.466V333.973L409.589 318.219V286.712L436.055 270.959L462.52 286.712Z" stroke="white" stroke-opacity="0.3" stroke-width="0.991081" style="mix-blend-mode:overlay"/>
<path d="M516.712 286.712L489.616 302.466L462.521 286.712L489.616 270.959L516.712 286.712Z" stroke="white" stroke-opacity="0.3" stroke-width="0.991081" style="mix-blend-mode:overlay"/>
</g>
</g>
<defs>
<linearGradient id="paint0_linear_1488_35962" x1="481.81" y1="270.704" x2="481.81" y2="212.063" gradientUnits="userSpaceOnUse">
<stop stop-opacity="0.5"/>
<stop offset="1" stop-opacity="0"/>
</linearGradient>
<clipPath id="clip0_1488_35962">
<rect width="920" height="271" fill="white"/>
</clipPath>
<clipPath id="clip1_1488_35962">
<rect width="920" height="270.959" fill="white"/>
</clipPath>
</defs>
</svg>
