<svg width="1789" height="848" viewBox="0 0 1789 848" fill="none" xmlns="http://www.w3.org/2000/svg">
<g clip-path="url(#clip0_1120_28920)">
<g opacity="0.1" clip-path="url(#clip1_1120_28920)">
<path d="M610.66 -159.556C977.778 -205.408 1307.85 -48.7375 1347.89 190.376C1387.93 429.49 1122.78 660.5 755.665 706.351C388.547 752.203 58.4792 595.532 18.4374 356.419C-21.6044 117.305 243.543 -113.705 610.66 -159.556Z" stroke="#0E1723" stroke-width="0.55181" stroke-miterlimit="10"/>
<path d="M650.042 -152.308C1009.18 -184.418 1323.05 -20.8968 1351.08 212.927C1379.11 446.75 1110.69 662.332 751.548 694.442C392.406 726.552 78.5418 563.031 50.5117 329.207C22.4816 95.3835 290.901 -120.198 650.042 -152.308Z" stroke="#0E1723" stroke-width="0.581608" stroke-miterlimit="10"/>
<path d="M689.373 -144.511C1040.4 -162.904 1337.96 7.2861 1354 235.619C1370.04 463.952 1098.49 663.963 747.465 682.356C396.442 700.749 98.8775 530.559 82.8359 302.226C66.7943 73.8932 338.35 -126.118 689.373 -144.511Z" stroke="#0E1723" stroke-width="0.611406" stroke-miterlimit="10"/>
<path d="M728.68 -136.128C1071.29 -140.836 1352.36 35.7344 1356.46 258.252C1360.56 480.77 1086.14 664.973 743.526 669.68C400.914 674.388 119.85 497.818 115.75 275.3C111.651 52.7821 386.069 -131.42 728.68 -136.128Z" stroke="#0E1723" stroke-width="0.641203" stroke-miterlimit="10"/>
<path d="M767.757 -127.127C1101.62 -118.252 1366.01 64.328 1358.3 280.677C1350.59 497.025 1073.69 665.215 739.832 656.34C405.974 647.465 141.579 464.885 149.291 248.537C157.002 32.1884 433.899 -136.002 767.757 -127.127Z" stroke="#0E1723" stroke-width="0.671222" stroke-miterlimit="10"/>
<path d="M806.335 -117.646C1131.29 -95.3617 1379.08 92.7743 1359.79 302.567C1340.5 512.36 1061.43 664.366 736.479 642.082C411.526 619.797 163.737 431.662 183.027 221.868C202.317 12.0754 481.382 -139.93 806.335 -117.646Z" stroke="#0E1723" stroke-width="0.70102" stroke-miterlimit="10"/>
<path d="M844.288 -107.559C1160.03 -72.0441 1391.17 121.35 1360.55 324.4C1329.93 527.449 1049.14 663.263 733.395 627.748C417.65 592.233 186.513 398.839 217.135 195.79C247.757 -7.25971 528.543 -143.073 844.288 -107.559Z" stroke="#0E1723" stroke-width="0.730817" stroke-miterlimit="10"/>
<path d="M881.793 -96.8646C1188.17 -48.3833 1402.84 149.755 1361.27 345.689C1319.7 541.623 1037.63 661.157 731.253 612.676C424.872 564.194 210.201 366.057 251.772 170.122C293.342 -25.8117 575.412 -145.346 881.793 -96.8646Z" stroke="#0E1723" stroke-width="0.760615" stroke-miterlimit="10"/>
<path d="M918.411 -85.7314C1215.2 -24.5916 1413.59 177.799 1361.52 366.322C1309.44 554.844 1026.64 658.108 729.845 596.968C433.054 535.829 234.669 333.438 286.74 144.915C338.811 -43.6071 621.62 -146.871 918.411 -85.7314Z" stroke="#0E1723" stroke-width="0.790413" stroke-miterlimit="10"/>
<path d="M954.063 -74.0966C1241 -0.689952 1423.32 205.453 1361.27 386.336C1299.23 567.219 1016.32 654.346 729.38 580.939C442.439 507.533 260.124 301.39 322.169 120.507C384.213 -60.3764 667.122 -147.503 954.063 -74.0966Z" stroke="#0E1723" stroke-width="0.820211" stroke-miterlimit="10"/>
<path d="M988.897 -62.1587C1266.07 23.2205 1432.8 232.786 1361.29 405.919C1289.79 579.052 1007.13 650.191 729.953 564.812C452.778 479.432 286.05 269.867 357.555 96.7339C429.061 -76.3992 711.722 -147.538 988.897 -62.1587Z" stroke="#0E1723" stroke-width="0.850009" stroke-miterlimit="10"/>
<path d="M1022.46 -50.1831C1289.63 46.6768 1441.07 259.205 1360.71 424.511C1280.36 589.818 998.637 645.305 731.468 548.445C464.299 451.585 312.856 239.057 393.211 73.7506C473.565 -91.556 755.289 -147.043 1022.46 -50.1831Z" stroke="#0E1723" stroke-width="0.879806" stroke-miterlimit="10"/>
<path d="M1055.06 -38.0796C1312.36 69.9416 1449.15 285.074 1360.57 442.431C1272 599.789 991.606 639.784 734.3 531.763C476.993 423.741 340.209 208.609 428.783 51.2517C517.358 -106.106 797.75 -146.101 1055.06 -38.0796Z" stroke="#0E1723" stroke-width="0.909825" stroke-miterlimit="10"/>
<path d="M1086.68 -26.2401C1334.1 92.5152 1456.61 310.08 1360.32 459.705C1264.02 609.329 985.393 634.354 737.978 515.599C490.563 396.843 368.055 179.279 464.347 29.6539C560.639 -119.971 839.269 -144.995 1086.68 -26.2401Z" stroke="#0E1723" stroke-width="0.939623" stroke-miterlimit="10"/>
<path d="M1117.12 -14.4243C1354.83 114.753 1463.68 334.532 1360.26 476.465C1256.84 618.398 980.311 628.738 742.61 499.561C504.909 370.383 396.052 150.604 499.471 8.67125C602.891 -133.262 879.423 -143.602 1117.12 -14.4243Z" stroke="#0E1723" stroke-width="0.96942" stroke-miterlimit="10"/>
<path d="M1146.85 -2.98051C1374.99 136.32 1470.71 358.235 1360.64 492.68C1250.58 627.126 976.404 623.191 748.261 483.891C520.119 344.591 424.399 122.676 534.466 -11.7701C644.532 -146.216 918.705 -142.281 1146.85 -2.98051Z" stroke="#0E1723" stroke-width="0.999218" stroke-miterlimit="10"/>
<path d="M1175.6 7.76653C1394.33 156.889 1477.41 380.87 1361.17 508.043C1244.92 635.215 973.363 617.421 754.631 468.299C535.899 319.177 452.82 95.1955 569.068 -31.977C685.316 -159.15 956.871 -141.356 1175.6 7.76653Z" stroke="#0E1723" stroke-width="1.02902" stroke-miterlimit="10"/>
<path d="M1203.67 18.2699C1413.27 177.035 1484.27 403.139 1362.25 523.287C1240.22 643.434 971.389 612.129 761.789 453.364C552.189 294.599 481.194 68.4952 603.217 -51.6526C725.24 -171.801 994.073 -140.495 1203.67 18.2699Z" stroke="#0E1723" stroke-width="1.05881" stroke-miterlimit="10"/>
<path d="M1231.34 28.1285C1431.97 196.354 1491.14 424.755 1363.52 538.275C1235.89 651.796 969.791 607.449 769.164 439.223C568.536 270.997 509.357 42.5967 636.983 -70.9239C764.609 -184.445 1030.71 -140.097 1231.34 28.1285Z" stroke="#0E1723" stroke-width="1.08861" stroke-miterlimit="10"/>
<path d="M1258.57 37.6059C1450.54 215.255 1498.43 446.091 1365.55 553.191C1232.66 660.292 969.309 603.101 777.34 425.452C585.371 247.802 537.476 16.967 670.364 -90.1337C803.253 -197.234 1066.6 -140.043 1258.57 37.6059Z" stroke="#0E1723" stroke-width="1.11863" stroke-miterlimit="10"/>
<path d="M1285.66 46.1662C1469.15 233.124 1505.95 466.625 1367.86 567.705C1229.77 668.786 969.075 599.168 785.588 412.211C602.102 225.253 565.302 -8.24802 703.394 -109.328C841.486 -210.409 1102.18 -140.792 1285.66 46.1662Z" stroke="#0E1723" stroke-width="1.14843" stroke-miterlimit="10"/>
<path d="M1312.66 54.3152C1487.88 250.575 1513.78 487.008 1370.51 582.403C1227.25 677.797 969.067 596.029 793.85 399.769C618.633 203.509 592.73 -32.9233 735.995 -128.318C879.26 -223.712 1137.44 -141.945 1312.66 54.3152Z" stroke="#0E1723" stroke-width="1.17823" stroke-miterlimit="10"/>
<path d="M1339.42 62.0362C1506.55 267.609 1521.78 507.182 1373.43 597.137C1225.08 687.093 969.328 593.366 802.193 387.793C635.058 182.22 619.83 -57.3526 768.18 -147.308C916.53 -237.263 1172.28 -143.537 1339.42 62.0362Z" stroke="#0E1723" stroke-width="1.20802" stroke-miterlimit="10"/>
<path d="M1366.31 69.1378C1525.51 283.99 1530.12 526.93 1376.62 611.759C1223.12 696.588 969.632 591.183 810.433 376.331C651.235 161.479 646.616 -81.4613 800.117 -166.29C953.617 -251.119 1207.11 -145.715 1366.31 69.1378Z" stroke="#0E1723" stroke-width="1.23782" stroke-miterlimit="10"/>
<path d="M1393.55 75.8053C1545.08 300.158 1539.28 546.834 1380.58 626.773C1221.89 706.712 970.408 589.641 818.879 365.289C667.351 140.937 673.158 -105.74 831.85 -185.678C990.543 -265.617 1242.03 -148.547 1393.55 75.8053Z" stroke="#0E1723" stroke-width="1.26762" stroke-miterlimit="10"/>
<path d="M1420.82 81.9843C1564.75 315.775 1548.45 566.36 1384.41 641.681C1220.37 717.002 970.706 588.538 826.775 354.747C682.845 120.957 699.148 -129.628 863.19 -204.949C1027.23 -280.271 1276.89 -151.806 1420.82 81.9843Z" stroke="#0E1723" stroke-width="1.29742" stroke-miterlimit="10"/>
<path d="M1448.19 87.6835C1584.7 331.102 1557.95 585.908 1388.44 656.809C1218.92 727.709 970.843 587.856 834.333 344.437C697.823 101.018 724.576 -153.788 894.087 -224.689C1063.6 -295.589 1311.68 -155.735 1448.19 87.6835Z" stroke="#0E1723" stroke-width="1.32743" stroke-miterlimit="10"/>
<path d="M1475.83 93.1311C1604.99 346.185 1567.83 605.335 1392.82 671.958C1217.82 738.581 971.235 587.448 842.071 334.394C712.907 81.3401 750.07 -177.809 925.078 -244.432C1100.09 -311.055 1346.67 -159.923 1475.83 93.1311Z" stroke="#0E1723" stroke-width="1.35723" stroke-miterlimit="10"/>
<path d="M1504 98.3437C1625.96 361.224 1578.24 625.052 1397.41 687.621C1216.59 750.191 971.129 587.806 849.169 324.926C727.21 62.0462 774.931 -201.782 955.758 -264.351C1136.58 -326.92 1382.04 -164.536 1504 98.3437Z" stroke="#0E1723" stroke-width="1.38703" stroke-miterlimit="10"/>
<path d="M986.237 -284.421C1172.98 -343.05 1417.46 -169.443 1532.28 103.341C1647.11 376.125 1588.81 644.788 1402.06 703.417C1215.32 762.046 970.842 588.439 856.016 315.655C741.189 42.8711 799.491 -225.792 986.237 -284.421Z" stroke="#0E1723" stroke-width="1.41683" stroke-miterlimit="10"/>
<path d="M1016.67 -304.714C1209.58 -359.543 1453.33 -174.734 1561.1 108.068C1668.87 390.87 1599.85 664.573 1406.93 719.402C1214.02 774.23 970.273 589.421 862.505 306.62C754.736 23.8177 823.759 -249.886 1016.67 -304.714Z" stroke="#0E1723" stroke-width="1.44663" stroke-miterlimit="10"/>
<path d="M1046.93 -325.506C1246.06 -376.598 1489.19 -180.514 1589.98 112.459C1690.77 405.432 1611.05 684.351 1411.92 735.443C1212.79 786.534 969.662 590.451 868.874 297.478C768.086 4.50471 847.806 -274.415 1046.93 -325.506Z" stroke="#0E1723" stroke-width="1.47642" stroke-miterlimit="10"/>
<path d="M1077.14 -346.091C1282.76 -393.553 1525.51 -186.252 1619.34 116.929C1713.17 420.111 1622.55 704.363 1416.93 751.825C1211.31 799.287 968.557 591.986 874.726 288.805C780.896 -14.3764 871.519 -298.629 1077.14 -346.091Z" stroke="#0E1723" stroke-width="1.50622" stroke-miterlimit="10"/>
<path d="M1107.41 -366.931C1319.62 -410.806 1562.1 -192.23 1649.01 121.273C1735.92 434.776 1634.34 724.488 1422.12 768.363C1209.91 812.238 967.427 593.662 880.521 280.159C793.614 -33.344 895.195 -323.056 1107.41 -366.931Z" stroke="#0E1723" stroke-width="1.53602" stroke-miterlimit="10"/>
<path d="M1137.47 -387.797C1356.36 -428.142 1598.68 -198.349 1678.7 125.459C1758.72 449.268 1646.15 744.472 1427.26 784.817C1208.38 825.162 966.061 595.369 886.037 271.561C806.014 -52.2472 918.585 -347.452 1137.47 -387.797Z" stroke="#0E1723" stroke-width="1.56604" stroke-miterlimit="10"/>
<path d="M1167.53 -409.182C1393.32 -446.036 1635.68 -204.874 1708.85 129.469C1782.02 463.811 1658.29 764.726 1432.5 801.58C1206.71 838.434 964.348 597.272 891.178 262.93C818.009 -71.4128 941.736 -372.327 1167.53 -409.182Z" stroke="#0E1723" stroke-width="1.59584" stroke-miterlimit="10"/>
<path d="M1197.25 -430.472C1430.07 -463.879 1672.59 -211.363 1738.95 133.54C1805.31 478.442 1670.36 785.122 1437.55 818.53C1204.73 851.937 962.204 599.42 895.848 254.518C829.491 -90.3846 964.434 -397.065 1197.25 -430.472Z" stroke="#0E1723" stroke-width="1.62563" stroke-miterlimit="10"/>
<path d="M1227.2 -451.76C1467.16 -481.729 1709.94 -217.841 1769.47 137.652C1829 493.145 1682.74 805.625 1442.78 835.595C1202.82 865.565 960.032 601.676 900.501 246.183C840.971 -109.31 987.237 -421.79 1227.2 -451.76Z" stroke="#0E1723" stroke-width="1.65543" stroke-miterlimit="10"/>
</g>
</g>
<defs>
<clipPath id="clip0_1120_28920">
<rect width="1789" height="848" fill="white"/>
</clipPath>
<clipPath id="clip1_1120_28920">
<rect width="1740.99" height="1309.47" fill="white" transform="matrix(0.95302 -0.302907 -0.392042 -0.919947 362.366 1185)"/>
</clipPath>
</defs>
</svg>
